<svg class="rich-terminal" viewBox="0 0 994 635.5999999999999" xmlns="http://www.w3.org/2000/svg">
    <!-- Generated with Rich https://www.textualize.io -->
    <style>

    @font-face {
        font-family: "Fira Code";
        src: local("FiraCode-Regular"),
                url("https://cdnjs.cloudflare.com/ajax/libs/firacode/6.2.0/woff2/FiraCode-Regular.woff2") format("woff2"),
                url("https://cdnjs.cloudflare.com/ajax/libs/firacode/6.2.0/woff/FiraCode-Regular.woff") format("woff");
        font-style: normal;
        font-weight: 400;
    }
    @font-face {
        font-family: "Fira Code";
        src: local("FiraCode-Bold"),
                url("https://cdnjs.cloudflare.com/ajax/libs/firacode/6.2.0/woff2/FiraCode-Bold.woff2") format("woff2"),
                url("https://cdnjs.cloudflare.com/ajax/libs/firacode/6.2.0/woff/FiraCode-Bold.woff") format("woff");
        font-style: bold;
        font-weight: 700;
    }

    .terminal-563714682-matrix {
        font-family: Fira Code, monospace;
        font-size: 20px;
        line-height: 24.4px;
        font-variant-east-asian: full-width;
    }

    .terminal-563714682-title {
        font-size: 18px;
        font-weight: bold;
        font-family: arial;
    }

    .terminal-563714682-r1 { fill: #333333 }
.terminal-563714682-r2 { fill: #c5c8c6 }
.terminal-563714682-r3 { fill: #ffffff;font-weight: bold }
.terminal-563714682-r4 { fill: #ff9500;font-weight: bold }
.terminal-563714682-r5 { fill: #ffd700;font-weight: bold }
.terminal-563714682-r6 { fill: #888888 }
.terminal-563714682-r7 { fill: #000000 }
.terminal-563714682-r8 { fill: #ffffff }
.terminal-563714682-r9 { fill: #121212 }
.terminal-563714682-r10 { fill: #676767 }
.terminal-563714682-r11 { fill: #242f38 }
.terminal-563714682-r12 { fill: #000f18 }
.terminal-563714682-r13 { fill: #8ad4a1 }
    </style>

    <defs>
    <clipPath id="terminal-563714682-clip-terminal">
      <rect x="0" y="0" width="975.0" height="584.5999999999999" />
    </clipPath>
    <clipPath id="terminal-563714682-line-0">
    <rect x="0" y="1.5" width="976" height="24.65"/>
            </clipPath>
<clipPath id="terminal-563714682-line-1">
    <rect x="0" y="25.9" width="976" height="24.65"/>
            </clipPath>
<clipPath id="terminal-563714682-line-2">
    <rect x="0" y="50.3" width="976" height="24.65"/>
            </clipPath>
<clipPath id="terminal-563714682-line-3">
    <rect x="0" y="74.7" width="976" height="24.65"/>
            </clipPath>
<clipPath id="terminal-563714682-line-4">
    <rect x="0" y="99.1" width="976" height="24.65"/>
            </clipPath>
<clipPath id="terminal-563714682-line-5">
    <rect x="0" y="123.5" width="976" height="24.65"/>
            </clipPath>
<clipPath id="terminal-563714682-line-6">
    <rect x="0" y="147.9" width="976" height="24.65"/>
            </clipPath>
<clipPath id="terminal-563714682-line-7">
    <rect x="0" y="172.3" width="976" height="24.65"/>
            </clipPath>
<clipPath id="terminal-563714682-line-8">
    <rect x="0" y="196.7" width="976" height="24.65"/>
            </clipPath>
<clipPath id="terminal-563714682-line-9">
    <rect x="0" y="221.1" width="976" height="24.65"/>
            </clipPath>
<clipPath id="terminal-563714682-line-10">
    <rect x="0" y="245.5" width="976" height="24.65"/>
            </clipPath>
<clipPath id="terminal-563714682-line-11">
    <rect x="0" y="269.9" width="976" height="24.65"/>
            </clipPath>
<clipPath id="terminal-563714682-line-12">
    <rect x="0" y="294.3" width="976" height="24.65"/>
            </clipPath>
<clipPath id="terminal-563714682-line-13">
    <rect x="0" y="318.7" width="976" height="24.65"/>
            </clipPath>
<clipPath id="terminal-563714682-line-14">
    <rect x="0" y="343.1" width="976" height="24.65"/>
            </clipPath>
<clipPath id="terminal-563714682-line-15">
    <rect x="0" y="367.5" width="976" height="24.65"/>
            </clipPath>
<clipPath id="terminal-563714682-line-16">
    <rect x="0" y="391.9" width="976" height="24.65"/>
            </clipPath>
<clipPath id="terminal-563714682-line-17">
    <rect x="0" y="416.3" width="976" height="24.65"/>
            </clipPath>
<clipPath id="terminal-563714682-line-18">
    <rect x="0" y="440.7" width="976" height="24.65"/>
            </clipPath>
<clipPath id="terminal-563714682-line-19">
    <rect x="0" y="465.1" width="976" height="24.65"/>
            </clipPath>
<clipPath id="terminal-563714682-line-20">
    <rect x="0" y="489.5" width="976" height="24.65"/>
            </clipPath>
<clipPath id="terminal-563714682-line-21">
    <rect x="0" y="513.9" width="976" height="24.65"/>
            </clipPath>
<clipPath id="terminal-563714682-line-22">
    <rect x="0" y="538.3" width="976" height="24.65"/>
            </clipPath>
    </defs>

    <rect fill="#292929" stroke="rgba(255,255,255,0.35)" stroke-width="1" x="1" y="1" width="992" height="633.6" rx="8"/><text class="terminal-563714682-title" fill="#c5c8c6" text-anchor="middle" x="496" y="27">OpenChatTUI</text>
            <g transform="translate(26,22)">
            <circle cx="0" cy="0" r="7" fill="#ff5f57"/>
            <circle cx="22" cy="0" r="7" fill="#febc2e"/>
            <circle cx="44" cy="0" r="7" fill="#28c840"/>
            </g>
        
    <g transform="translate(9, 41)" clip-path="url(#terminal-563714682-clip-terminal)">
    <rect fill="#000000" x="0" y="1.5" width="12.2" height="24.65" shape-rendering="crispEdges"/><rect fill="#000000" x="12.2" y="1.5" width="963.8" height="24.65" shape-rendering="crispEdges"/><rect fill="#000000" x="0" y="25.9" width="12.2" height="24.65" shape-rendering="crispEdges"/><rect fill="#000000" x="12.2" y="25.9" width="963.8" height="24.65" shape-rendering="crispEdges"/><rect fill="#000000" x="0" y="50.3" width="12.2" height="24.65" shape-rendering="crispEdges"/><rect fill="#000000" x="12.2" y="50.3" width="24.4" height="24.65" shape-rendering="crispEdges"/><rect fill="#000000" x="36.6" y="50.3" width="24.4" height="24.65" shape-rendering="crispEdges"/><rect fill="#000000" x="61" y="50.3" width="439.2" height="24.65" shape-rendering="crispEdges"/><rect fill="#000000" x="500.2" y="50.3" width="439.2" height="24.65" shape-rendering="crispEdges"/><rect fill="#000000" x="939.4" y="50.3" width="24.4" height="24.65" shape-rendering="crispEdges"/><rect fill="#000000" x="963.8" y="50.3" width="12.2" height="24.65" shape-rendering="crispEdges"/><rect fill="#000000" x="0" y="74.7" width="12.2" height="24.65" shape-rendering="crispEdges"/><rect fill="#000000" x="12.2" y="74.7" width="24.4" height="24.65" shape-rendering="crispEdges"/><rect fill="#000000" x="36.6" y="74.7" width="24.4" height="24.65" shape-rendering="crispEdges"/><rect fill="#000000" x="61" y="74.7" width="439.2" height="24.65" shape-rendering="crispEdges"/><rect fill="#000000" x="500.2" y="74.7" width="439.2" height="24.65" shape-rendering="crispEdges"/><rect fill="#000000" x="939.4" y="74.7" width="24.4" height="24.65" shape-rendering="crispEdges"/><rect fill="#000000" x="963.8" y="74.7" width="12.2" height="24.65" shape-rendering="crispEdges"/><rect fill="#000000" x="0" y="99.1" width="12.2" height="24.65" shape-rendering="crispEdges"/><rect fill="#000000" x="12.2" y="99.1" width="24.4" height="24.65" shape-rendering="crispEdges"/><rect fill="#000000" x="36.6" y="99.1" width="24.4" height="24.65" shape-rendering="crispEdges"/><rect fill="#000000" x="61" y="99.1" width="439.2" height="24.65" shape-rendering="crispEdges"/><rect fill="#000000" x="500.2" y="99.1" width="439.2" height="24.65" shape-rendering="crispEdges"/><rect fill="#000000" x="939.4" y="99.1" width="24.4" height="24.65" shape-rendering="crispEdges"/><rect fill="#000000" x="963.8" y="99.1" width="12.2" height="24.65" shape-rendering="crispEdges"/><rect fill="#000000" x="0" y="123.5" width="12.2" height="24.65" shape-rendering="crispEdges"/><rect fill="#000000" x="12.2" y="123.5" width="24.4" height="24.65" shape-rendering="crispEdges"/><rect fill="#000000" x="36.6" y="123.5" width="24.4" height="24.65" shape-rendering="crispEdges"/><rect fill="#000000" x="61" y="123.5" width="439.2" height="24.65" shape-rendering="crispEdges"/><rect fill="#000000" x="500.2" y="123.5" width="439.2" height="24.65" shape-rendering="crispEdges"/><rect fill="#000000" x="939.4" y="123.5" width="24.4" height="24.65" shape-rendering="crispEdges"/><rect fill="#000000" x="963.8" y="123.5" width="12.2" height="24.65" shape-rendering="crispEdges"/><rect fill="#000000" x="0" y="147.9" width="12.2" height="24.65" shape-rendering="crispEdges"/><rect fill="#000000" x="12.2" y="147.9" width="24.4" height="24.65" shape-rendering="crispEdges"/><rect fill="#000000" x="36.6" y="147.9" width="24.4" height="24.65" shape-rendering="crispEdges"/><rect fill="#000000" x="61" y="147.9" width="439.2" height="24.65" shape-rendering="crispEdges"/><rect fill="#000000" x="500.2" y="147.9" width="439.2" height="24.65" shape-rendering="crispEdges"/><rect fill="#000000" x="939.4" y="147.9" width="24.4" height="24.65" shape-rendering="crispEdges"/><rect fill="#000000" x="963.8" y="147.9" width="12.2" height="24.65" shape-rendering="crispEdges"/><rect fill="#000000" x="0" y="172.3" width="12.2" height="24.65" shape-rendering="crispEdges"/><rect fill="#000000" x="12.2" y="172.3" width="24.4" height="24.65" shape-rendering="crispEdges"/><rect fill="#000000" x="36.6" y="172.3" width="463.6" height="24.65" shape-rendering="crispEdges"/><rect fill="#000000" x="500.2" y="172.3" width="0" height="24.65" shape-rendering="crispEdges"/><rect fill="#000000" x="500.2" y="172.3" width="463.6" height="24.65" shape-rendering="crispEdges"/><rect fill="#000000" x="963.8" y="172.3" width="12.2" height="24.65" shape-rendering="crispEdges"/><rect fill="#000000" x="0" y="196.7" width="12.2" height="24.65" shape-rendering="crispEdges"/><rect fill="#000000" x="12.2" y="196.7" width="24.4" height="24.65" shape-rendering="crispEdges"/><rect fill="#000000" x="36.6" y="196.7" width="219.6" height="24.65" shape-rendering="crispEdges"/><rect fill="#000000" x="256.2" y="196.7" width="488" height="24.65" shape-rendering="crispEdges"/><rect fill="#000000" x="744.2" y="196.7" width="219.6" height="24.65" shape-rendering="crispEdges"/><rect fill="#000000" x="963.8" y="196.7" width="12.2" height="24.65" shape-rendering="crispEdges"/><rect fill="#000000" x="0" y="221.1" width="12.2" height="24.65" shape-rendering="crispEdges"/><rect fill="#000000" x="12.2" y="221.1" width="24.4" height="24.65" shape-rendering="crispEdges"/><rect fill="#000000" x="36.6" y="221.1" width="12.2" height="24.65" shape-rendering="crispEdges"/><rect fill="#000000" x="48.8" y="221.1" width="902.8" height="24.65" shape-rendering="crispEdges"/><rect fill="#000000" x="951.6" y="221.1" width="12.2" height="24.65" shape-rendering="crispEdges"/><rect fill="#000000" x="963.8" y="221.1" width="12.2" height="24.65" shape-rendering="crispEdges"/><rect fill="#000000" x="0" y="245.5" width="12.2" height="24.65" shape-rendering="crispEdges"/><rect fill="#000000" x="12.2" y="245.5" width="24.4" height="24.65" shape-rendering="crispEdges"/><rect fill="#000000" x="36.6" y="245.5" width="122" height="24.65" shape-rendering="crispEdges"/><rect fill="#000000" x="158.6" y="245.5" width="805.2" height="24.65" shape-rendering="crispEdges"/><rect fill="#000000" x="963.8" y="245.5" width="12.2" height="24.65" shape-rendering="crispEdges"/><rect fill="#000000" x="0" y="269.9" width="12.2" height="24.65" shape-rendering="crispEdges"/><rect fill="#000000" x="12.2" y="269.9" width="24.4" height="24.65" shape-rendering="crispEdges"/><rect fill="#000000" x="36.6" y="269.9" width="122" height="24.65" shape-rendering="crispEdges"/><rect fill="#000000" x="158.6" y="269.9" width="805.2" height="24.65" shape-rendering="crispEdges"/><rect fill="#000000" x="963.8" y="269.9" width="12.2" height="24.65" shape-rendering="crispEdges"/><rect fill="#000000" x="0" y="294.3" width="12.2" height="24.65" shape-rendering="crispEdges"/><rect fill="#000000" x="12.2" y="294.3" width="24.4" height="24.65" shape-rendering="crispEdges"/><rect fill="#ffffff" x="36.6" y="294.3" width="12.2" height="24.65" shape-rendering="crispEdges"/><rect fill="#0b0b0b" x="48.8" y="294.3" width="902.8" height="24.65" shape-rendering="crispEdges"/><rect fill="#000000" x="951.6" y="294.3" width="12.2" height="24.65" shape-rendering="crispEdges"/><rect fill="#000000" x="963.8" y="294.3" width="12.2" height="24.65" shape-rendering="crispEdges"/><rect fill="#000000" x="0" y="318.7" width="12.2" height="24.65" shape-rendering="crispEdges"/><rect fill="#000000" x="12.2" y="318.7" width="24.4" height="24.65" shape-rendering="crispEdges"/><rect fill="#ffffff" x="36.6" y="318.7" width="12.2" height="24.65" shape-rendering="crispEdges"/><rect fill="#0b0b0b" x="48.8" y="318.7" width="24.4" height="24.65" shape-rendering="crispEdges"/><rect fill="#e0e0e0" x="73.2" y="318.7" width="12.2" height="24.65" shape-rendering="crispEdges"/><rect fill="#0b0b0b" x="85.4" y="318.7" width="207.4" height="24.65" shape-rendering="crispEdges"/><rect fill="#0b0b0b" x="292.8" y="318.7" width="634.4" height="24.65" shape-rendering="crispEdges"/><rect fill="#0b0b0b" x="927.2" y="318.7" width="24.4" height="24.65" shape-rendering="crispEdges"/><rect fill="#000000" x="951.6" y="318.7" width="12.2" height="24.65" shape-rendering="crispEdges"/><rect fill="#000000" x="963.8" y="318.7" width="12.2" height="24.65" shape-rendering="crispEdges"/><rect fill="#000000" x="0" y="343.1" width="12.2" height="24.65" shape-rendering="crispEdges"/><rect fill="#000000" x="12.2" y="343.1" width="24.4" height="24.65" shape-rendering="crispEdges"/><rect fill="#ffffff" x="36.6" y="343.1" width="12.2" height="24.65" shape-rendering="crispEdges"/><rect fill="#0b0b0b" x="48.8" y="343.1" width="902.8" height="24.65" shape-rendering="crispEdges"/><rect fill="#000000" x="951.6" y="343.1" width="12.2" height="24.65" shape-rendering="crispEdges"/><rect fill="#000000" x="963.8" y="343.1" width="12.2" height="24.65" shape-rendering="crispEdges"/><rect fill="#000000" x="0" y="367.5" width="12.2" height="24.65" shape-rendering="crispEdges"/><rect fill="#000000" x="12.2" y="367.5" width="24.4" height="24.65" shape-rendering="crispEdges"/><rect fill="#000000" x="36.6" y="367.5" width="146.4" height="24.65" shape-rendering="crispEdges"/><rect fill="#000000" x="183" y="367.5" width="780.8" height="24.65" shape-rendering="crispEdges"/><rect fill="#000000" x="963.8" y="367.5" width="12.2" height="24.65" shape-rendering="crispEdges"/><rect fill="#000000" x="0" y="391.9" width="12.2" height="24.65" shape-rendering="crispEdges"/><rect fill="#000000" x="12.2" y="391.9" width="24.4" height="24.65" shape-rendering="crispEdges"/><rect fill="#000000" x="36.6" y="391.9" width="146.4" height="24.65" shape-rendering="crispEdges"/><rect fill="#000000" x="183" y="391.9" width="780.8" height="24.65" shape-rendering="crispEdges"/><rect fill="#000000" x="963.8" y="391.9" width="12.2" height="24.65" shape-rendering="crispEdges"/><rect fill="#000000" x="0" y="416.3" width="12.2" height="24.65" shape-rendering="crispEdges"/><rect fill="#000000" x="12.2" y="416.3" width="24.4" height="24.65" shape-rendering="crispEdges"/><rect fill="#000000" x="36.6" y="416.3" width="927.2" height="24.65" shape-rendering="crispEdges"/><rect fill="#000000" x="963.8" y="416.3" width="12.2" height="24.65" shape-rendering="crispEdges"/><rect fill="#000000" x="0" y="440.7" width="12.2" height="24.65" shape-rendering="crispEdges"/><rect fill="#000000" x="12.2" y="440.7" width="24.4" height="24.65" shape-rendering="crispEdges"/><rect fill="#000000" x="36.6" y="440.7" width="12.2" height="24.65" shape-rendering="crispEdges"/><rect fill="#000000" x="48.8" y="440.7" width="12.2" height="24.65" shape-rendering="crispEdges"/><rect fill="#242f38" x="61" y="440.7" width="12.2" height="24.65" shape-rendering="crispEdges"/><rect fill="#000000" x="73.2" y="440.7" width="12.2" height="24.65" shape-rendering="crispEdges"/><rect fill="#00233f" x="85.4" y="440.7" width="61" height="24.65" shape-rendering="crispEdges"/><rect fill="#000000" x="146.4" y="440.7" width="24.4" height="24.65" shape-rendering="crispEdges"/><rect fill="#000000" x="170.8" y="440.7" width="12.2" height="24.65" shape-rendering="crispEdges"/><rect fill="#242f38" x="183" y="440.7" width="12.2" height="24.65" shape-rendering="crispEdges"/><rect fill="#000000" x="195.2" y="440.7" width="12.2" height="24.65" shape-rendering="crispEdges"/><rect fill="#000000" x="207.4" y="440.7" width="73.2" height="24.65" shape-rendering="crispEdges"/><rect fill="#000000" x="280.6" y="440.7" width="24.4" height="24.65" shape-rendering="crispEdges"/><rect fill="#000000" x="305" y="440.7" width="12.2" height="24.65" shape-rendering="crispEdges"/><rect fill="#242f38" x="317.2" y="440.7" width="12.2" height="24.65" shape-rendering="crispEdges"/><rect fill="#000000" x="329.4" y="440.7" width="12.2" height="24.65" shape-rendering="crispEdges"/><rect fill="#000000" x="341.6" y="440.7" width="85.4" height="24.65" shape-rendering="crispEdges"/><rect fill="#000000" x="427" y="440.7" width="12.2" height="24.65" shape-rendering="crispEdges"/><rect fill="#242f38" x="439.2" y="440.7" width="12.2" height="24.65" shape-rendering="crispEdges"/><rect fill="#000000" x="451.4" y="440.7" width="12.2" height="24.65" shape-rendering="crispEdges"/><rect fill="#000000" x="463.6" y="440.7" width="97.6" height="24.65" shape-rendering="crispEdges"/><rect fill="#000000" x="561.2" y="440.7" width="12.2" height="24.65" shape-rendering="crispEdges"/><rect fill="#242f38" x="573.4" y="440.7" width="12.2" height="24.65" shape-rendering="crispEdges"/><rect fill="#000000" x="585.6" y="440.7" width="12.2" height="24.65" shape-rendering="crispEdges"/><rect fill="#000000" x="597.8" y="440.7" width="85.4" height="24.65" shape-rendering="crispEdges"/><rect fill="#000000" x="683.2" y="440.7" width="12.2" height="24.65" shape-rendering="crispEdges"/><rect fill="#242f38" x="695.4" y="440.7" width="12.2" height="24.65" shape-rendering="crispEdges"/><rect fill="#000000" x="707.6" y="440.7" width="12.2" height="24.65" shape-rendering="crispEdges"/><rect fill="#000000" x="719.8" y="440.7" width="73.2" height="24.65" shape-rendering="crispEdges"/><rect fill="#000000" x="793" y="440.7" width="24.4" height="24.65" shape-rendering="crispEdges"/><rect fill="#000000" x="817.4" y="440.7" width="12.2" height="24.65" shape-rendering="crispEdges"/><rect fill="#242f38" x="829.6" y="440.7" width="12.2" height="24.65" shape-rendering="crispEdges"/><rect fill="#000000" x="841.8" y="440.7" width="12.2" height="24.65" shape-rendering="crispEdges"/><rect fill="#000000" x="854" y="440.7" width="97.6" height="24.65" shape-rendering="crispEdges"/><rect fill="#000000" x="951.6" y="440.7" width="12.2" height="24.65" shape-rendering="crispEdges"/><rect fill="#000000" x="963.8" y="440.7" width="12.2" height="24.65" shape-rendering="crispEdges"/><rect fill="#000000" x="0" y="465.1" width="12.2" height="24.65" shape-rendering="crispEdges"/><rect fill="#000000" x="12.2" y="465.1" width="24.4" height="24.65" shape-rendering="crispEdges"/><rect fill="#000000" x="36.6" y="465.1" width="12.2" height="24.65" shape-rendering="crispEdges"/><rect fill="#000000" x="48.8" y="465.1" width="902.8" height="24.65" shape-rendering="crispEdges"/><rect fill="#000000" x="951.6" y="465.1" width="12.2" height="24.65" shape-rendering="crispEdges"/><rect fill="#000000" x="963.8" y="465.1" width="12.2" height="24.65" shape-rendering="crispEdges"/><rect fill="#000000" x="0" y="489.5" width="12.2" height="24.65" shape-rendering="crispEdges"/><rect fill="#000000" x="12.2" y="489.5" width="24.4" height="24.65" shape-rendering="crispEdges"/><rect fill="#000000" x="36.6" y="489.5" width="12.2" height="24.65" shape-rendering="crispEdges"/><rect fill="#000000" x="48.8" y="489.5" width="12.2" height="24.65" shape-rendering="crispEdges"/><rect fill="#242f38" x="61" y="489.5" width="12.2" height="24.65" shape-rendering="crispEdges"/><rect fill="#000000" x="73.2" y="489.5" width="12.2" height="24.65" shape-rendering="crispEdges"/><rect fill="#000000" x="85.4" y="489.5" width="73.2" height="24.65" shape-rendering="crispEdges"/><rect fill="#000000" x="158.6" y="489.5" width="12.2" height="24.65" shape-rendering="crispEdges"/><rect fill="#000000" x="170.8" y="489.5" width="12.2" height="24.65" shape-rendering="crispEdges"/><rect fill="#242f38" x="183" y="489.5" width="12.2" height="24.65" shape-rendering="crispEdges"/><rect fill="#000000" x="195.2" y="489.5" width="12.2" height="24.65" shape-rendering="crispEdges"/><rect fill="#000000" x="207.4" y="489.5" width="97.6" height="24.65" shape-rendering="crispEdges"/><rect fill="#000000" x="305" y="489.5" width="12.2" height="24.65" shape-rendering="crispEdges"/><rect fill="#242f38" x="317.2" y="489.5" width="12.2" height="24.65" shape-rendering="crispEdges"/><rect fill="#000000" x="329.4" y="489.5" width="12.2" height="24.65" shape-rendering="crispEdges"/><rect fill="#000000" x="341.6" y="489.5" width="85.4" height="24.65" shape-rendering="crispEdges"/><rect fill="#000000" x="427" y="489.5" width="12.2" height="24.65" shape-rendering="crispEdges"/><rect fill="#242f38" x="439.2" y="489.5" width="12.2" height="24.65" shape-rendering="crispEdges"/><rect fill="#000000" x="451.4" y="489.5" width="12.2" height="24.65" shape-rendering="crispEdges"/><rect fill="#000000" x="463.6" y="489.5" width="73.2" height="24.65" shape-rendering="crispEdges"/><rect fill="#000000" x="536.8" y="489.5" width="24.4" height="24.65" shape-rendering="crispEdges"/><rect fill="#000000" x="561.2" y="489.5" width="12.2" height="24.65" shape-rendering="crispEdges"/><rect fill="#242f38" x="573.4" y="489.5" width="12.2" height="24.65" shape-rendering="crispEdges"/><rect fill="#000000" x="585.6" y="489.5" width="12.2" height="24.65" shape-rendering="crispEdges"/><rect fill="#000000" x="597.8" y="489.5" width="85.4" height="24.65" shape-rendering="crispEdges"/><rect fill="#000000" x="683.2" y="489.5" width="12.2" height="24.65" shape-rendering="crispEdges"/><rect fill="#242f38" x="695.4" y="489.5" width="12.2" height="24.65" shape-rendering="crispEdges"/><rect fill="#000000" x="707.6" y="489.5" width="12.2" height="24.65" shape-rendering="crispEdges"/><rect fill="#000000" x="719.8" y="489.5" width="97.6" height="24.65" shape-rendering="crispEdges"/><rect fill="#000000" x="817.4" y="489.5" width="12.2" height="24.65" shape-rendering="crispEdges"/><rect fill="#242f38" x="829.6" y="489.5" width="12.2" height="24.65" shape-rendering="crispEdges"/><rect fill="#000000" x="841.8" y="489.5" width="12.2" height="24.65" shape-rendering="crispEdges"/><rect fill="#000000" x="854" y="489.5" width="97.6" height="24.65" shape-rendering="crispEdges"/><rect fill="#000000" x="951.6" y="489.5" width="12.2" height="24.65" shape-rendering="crispEdges"/><rect fill="#000000" x="963.8" y="489.5" width="12.2" height="24.65" shape-rendering="crispEdges"/><rect fill="#000000" x="0" y="513.9" width="12.2" height="24.65" shape-rendering="crispEdges"/><rect fill="#000000" x="12.2" y="513.9" width="24.4" height="24.65" shape-rendering="crispEdges"/><rect fill="#000000" x="36.6" y="513.9" width="12.2" height="24.65" shape-rendering="crispEdges"/><rect fill="#000000" x="48.8" y="513.9" width="902.8" height="24.65" shape-rendering="crispEdges"/><rect fill="#000000" x="951.6" y="513.9" width="12.2" height="24.65" shape-rendering="crispEdges"/><rect fill="#000000" x="963.8" y="513.9" width="12.2" height="24.65" shape-rendering="crispEdges"/><rect fill="#000000" x="0" y="538.3" width="12.2" height="24.65" shape-rendering="crispEdges"/><rect fill="#000000" x="12.2" y="538.3" width="24.4" height="24.65" shape-rendering="crispEdges"/><rect fill="#000000" x="36.6" y="538.3" width="12.2" height="24.65" shape-rendering="crispEdges"/><rect fill="#000000" x="48.8" y="538.3" width="902.8" height="24.65" shape-rendering="crispEdges"/><rect fill="#000000" x="951.6" y="538.3" width="12.2" height="24.65" shape-rendering="crispEdges"/><rect fill="#000000" x="963.8" y="538.3" width="12.2" height="24.65" shape-rendering="crispEdges"/><rect fill="#000000" x="0" y="562.7" width="12.2" height="24.65" shape-rendering="crispEdges"/><rect fill="#000000" x="12.2" y="562.7" width="24.4" height="24.65" shape-rendering="crispEdges"/><rect fill="#000000" x="36.6" y="562.7" width="927.2" height="24.65" shape-rendering="crispEdges"/><rect fill="#000000" x="963.8" y="562.7" width="12.2" height="24.65" shape-rendering="crispEdges"/>
    <g class="terminal-563714682-matrix">
    <text class="terminal-563714682-r1" x="0" y="20" textLength="12.2" clip-path="url(#terminal-563714682-line-0)">╭</text><text class="terminal-563714682-r1" x="12.2" y="20" textLength="963.8" clip-path="url(#terminal-563714682-line-0)">───────────────────────────────────────────────────────────────────────────────</text><text class="terminal-563714682-r2" x="976" y="20" textLength="12.2" clip-path="url(#terminal-563714682-line-0)">
</text><text class="terminal-563714682-r1" x="0" y="44.4" textLength="12.2" clip-path="url(#terminal-563714682-line-1)">│</text><text class="terminal-563714682-r2" x="976" y="44.4" textLength="12.2" clip-path="url(#terminal-563714682-line-1)">
</text><text class="terminal-563714682-r1" x="0" y="68.8" textLength="12.2" clip-path="url(#terminal-563714682-line-2)">│</text><text class="terminal-563714682-r3" x="61" y="68.8" textLength="439.2" clip-path="url(#terminal-563714682-line-2)">&#160;&#160;██████&#160;&#160;&#160;&#160;&#160;&#160;&#160;&#160;&#160;&#160;&#160;&#160;&#160;&#160;&#160;&#160;&#160;&#160;&#160;&#160;&#160;&#160;&#160;&#160;&#160;&#160;&#160;&#160;</text><text class="terminal-563714682-r4" x="500.2" y="68.8" textLength="439.2" clip-path="url(#terminal-563714682-line-2)">&#160;&#160;██████&#160;&#160;██&#160;&#160;&#160;&#160;&#160;&#160;&#160;&#160;&#160;&#160;&#160;&#160;&#160;&#160;&#160;&#160;&#160;██&#160;&#160;&#160;&#160;&#160;</text><text class="terminal-563714682-r2" x="976" y="68.8" textLength="12.2" clip-path="url(#terminal-563714682-line-2)">
</text><text class="terminal-563714682-r1" x="0" y="93.2" textLength="12.2" clip-path="url(#terminal-563714682-line-3)">│</text><text class="terminal-563714682-r3" x="61" y="93.2" textLength="439.2" clip-path="url(#terminal-563714682-line-3)">&#160;██&#160;&#160;&#160;&#160;██&#160;&#160;██████&#160;&#160;&#160;██████&#160;&#160;&#160;██████&#160;</text><text class="terminal-563714682-r4" x="500.2" y="93.2" textLength="439.2" clip-path="url(#terminal-563714682-line-3)">&#160;██&#160;&#160;&#160;&#160;&#160;&#160;&#160;██████&#160;&#160;&#160;██████&#160;&#160;██████&#160;&#160;&#160;</text><text class="terminal-563714682-r2" x="976" y="93.2" textLength="12.2" clip-path="url(#terminal-563714682-line-3)">
</text><text class="terminal-563714682-r1" x="0" y="117.6" textLength="12.2" clip-path="url(#terminal-563714682-line-4)">│</text><text class="terminal-563714682-r3" x="61" y="117.6" textLength="439.2" clip-path="url(#terminal-563714682-line-4)">&#160;██&#160;&#160;&#160;&#160;██&#160;&#160;██&#160;&#160;&#160;██&#160;&#160;███████&#160;&#160;██&#160;&#160;&#160;██</text><text class="terminal-563714682-r4" x="500.2" y="117.6" textLength="439.2" clip-path="url(#terminal-563714682-line-4)">&#160;██&#160;&#160;&#160;&#160;&#160;&#160;&#160;██&#160;&#160;&#160;██&#160;██&#160;&#160;&#160;&#160;██&#160;&#160;&#160;██&#160;&#160;&#160;&#160;&#160;</text><text class="terminal-563714682-r2" x="976" y="117.6" textLength="12.2" clip-path="url(#terminal-563714682-line-4)">
</text><text class="terminal-563714682-r1" x="0" y="142" textLength="12.2" clip-path="url(#terminal-563714682-line-5)">│</text><text class="terminal-563714682-r3" x="61" y="142" textLength="439.2" clip-path="url(#terminal-563714682-line-5)">&#160;██&#160;&#160;&#160;&#160;██&#160;&#160;██████&#160;&#160;&#160;██&#160;&#160;&#160;&#160;&#160;&#160;&#160;██&#160;&#160;&#160;██</text><text class="terminal-563714682-r4" x="500.2" y="142" textLength="439.2" clip-path="url(#terminal-563714682-line-5)">&#160;██&#160;&#160;&#160;&#160;&#160;&#160;&#160;██&#160;&#160;&#160;██&#160;&#160;███████&#160;&#160;&#160;██&#160;&#160;&#160;&#160;&#160;</text><text class="terminal-563714682-r2" x="976" y="142" textLength="12.2" clip-path="url(#terminal-563714682-line-5)">
</text><text class="terminal-563714682-r1" x="0" y="166.4" textLength="12.2" clip-path="url(#terminal-563714682-line-6)">│</text><text class="terminal-563714682-r3" x="61" y="166.4" textLength="439.2" clip-path="url(#terminal-563714682-line-6)">&#160;&#160;██████&#160;&#160;&#160;██&#160;&#160;&#160;&#160;&#160;&#160;&#160;██████&#160;&#160;&#160;██&#160;&#160;&#160;██</text><text class="terminal-563714682-r4" x="500.2" y="166.4" textLength="439.2" clip-path="url(#terminal-563714682-line-6)">&#160;&#160;██████&#160;&#160;██&#160;&#160;&#160;██&#160;██&#160;&#160;&#160;&#160;██&#160;&#160;&#160;&#160;████&#160;&#160;</text><text class="terminal-563714682-r2" x="976" y="166.4" textLength="12.2" clip-path="url(#terminal-563714682-line-6)">
</text><text class="terminal-563714682-r1" x="0" y="190.8" textLength="12.2" clip-path="url(#terminal-563714682-line-7)">│</text><text class="terminal-563714682-r2" x="976" y="190.8" textLength="12.2" clip-path="url(#terminal-563714682-line-7)">
</text><text class="terminal-563714682-r1" x="0" y="215.2" textLength="12.2" clip-path="url(#terminal-563714682-line-8)">│</text><text class="terminal-563714682-r5" x="256.2" y="215.2" textLength="488" clip-path="url(#terminal-563714682-line-8)">&#160;&#160;&#160;&#160;&#160;&#160;&#160;&#160;&#160;&#160;&#160;&#160;&#160;&#160;&#160;&#160;&#160;&#160;&#160;&#160;&#160;&#160;&#160;&#160;&#160;&#160;&#160;&#160;&#160;&#160;&#160;─&#160;T&#160;U&#160;I&#160;─</text><text class="terminal-563714682-r2" x="976" y="215.2" textLength="12.2" clip-path="url(#terminal-563714682-line-8)">
</text><text class="terminal-563714682-r1" x="0" y="239.6" textLength="12.2" clip-path="url(#terminal-563714682-line-9)">│</text><text class="terminal-563714682-r1" x="48.8" y="239.6" textLength="902.8" clip-path="url(#terminal-563714682-line-9)">──────────────────────────────────────────────────────────────────────────</text><text class="terminal-563714682-r2" x="976" y="239.6" textLength="12.2" clip-path="url(#terminal-563714682-line-9)">
</text><text class="terminal-563714682-r1" x="0" y="264" textLength="12.2" clip-path="url(#terminal-563714682-line-10)">│</text><text class="terminal-563714682-r2" x="976" y="264" textLength="12.2" clip-path="url(#terminal-563714682-line-10)">
</text><text class="terminal-563714682-r1" x="0" y="288.4" textLength="12.2" clip-path="url(#terminal-563714682-line-11)">│</text><text class="terminal-563714682-r6" x="36.6" y="288.4" textLength="122" clip-path="url(#terminal-563714682-line-11)">&#160;&#160;Username</text><text class="terminal-563714682-r2" x="976" y="288.4" textLength="12.2" clip-path="url(#terminal-563714682-line-11)">
</text><text class="terminal-563714682-r1" x="0" y="312.8" textLength="12.2" clip-path="url(#terminal-563714682-line-12)">│</text><text class="terminal-563714682-r7" x="36.6" y="312.8" textLength="12.2" clip-path="url(#terminal-563714682-line-12)">▊</text><text class="terminal-563714682-r8" x="48.8" y="312.8" textLength="902.8" clip-path="url(#terminal-563714682-line-12)">▔▔▔▔▔▔▔▔▔▔▔▔▔▔▔▔▔▔▔▔▔▔▔▔▔▔▔▔▔▔▔▔▔▔▔▔▔▔▔▔▔▔▔▔▔▔▔▔▔▔▔▔▔▔▔▔▔▔▔▔▔▔▔▔▔▔▔▔▔▔▔▔▔▔</text><text class="terminal-563714682-r8" x="951.6" y="312.8" textLength="12.2" clip-path="url(#terminal-563714682-line-12)">▎</text><text class="terminal-563714682-r2" x="976" y="312.8" textLength="12.2" clip-path="url(#terminal-563714682-line-12)">
</text><text class="terminal-563714682-r1" x="0" y="337.2" textLength="12.2" clip-path="url(#terminal-563714682-line-13)">│</text><text class="terminal-563714682-r7" x="36.6" y="337.2" textLength="12.2" clip-path="url(#terminal-563714682-line-13)">▊</text><text class="terminal-563714682-r9" x="73.2" y="337.2" textLength="12.2" clip-path="url(#terminal-563714682-line-13)">E</text><text class="terminal-563714682-r10" x="85.4" y="337.2" textLength="207.4" clip-path="url(#terminal-563714682-line-13)">nter&#160;your&#160;name...</text><text class="terminal-563714682-r8" x="951.6" y="337.2" textLength="12.2" clip-path="url(#terminal-563714682-line-13)">▎</text><text class="terminal-563714682-r2" x="976" y="337.2" textLength="12.2" clip-path="url(#terminal-563714682-line-13)">
</text><text class="terminal-563714682-r1" x="0" y="361.6" textLength="12.2" clip-path="url(#terminal-563714682-line-14)">│</text><text class="terminal-563714682-r7" x="36.6" y="361.6" textLength="12.2" clip-path="url(#terminal-563714682-line-14)">▊</text><text class="terminal-563714682-r8" x="48.8" y="361.6" textLength="902.8" clip-path="url(#terminal-563714682-line-14)">▁▁▁▁▁▁▁▁▁▁▁▁▁▁▁▁▁▁▁▁▁▁▁▁▁▁▁▁▁▁▁▁▁▁▁▁▁▁▁▁▁▁▁▁▁▁▁▁▁▁▁▁▁▁▁▁▁▁▁▁▁▁▁▁▁▁▁▁▁▁▁▁▁▁</text><text class="terminal-563714682-r8" x="951.6" y="361.6" textLength="12.2" clip-path="url(#terminal-563714682-line-14)">▎</text><text class="terminal-563714682-r2" x="976" y="361.6" textLength="12.2" clip-path="url(#terminal-563714682-line-14)">
</text><text class="terminal-563714682-r1" x="0" y="386" textLength="12.2" clip-path="url(#terminal-563714682-line-15)">│</text><text class="terminal-563714682-r2" x="976" y="386" textLength="12.2" clip-path="url(#terminal-563714682-line-15)">
</text><text class="terminal-563714682-r1" x="0" y="410.4" textLength="12.2" clip-path="url(#terminal-563714682-line-16)">│</text><text class="terminal-563714682-r6" x="36.6" y="410.4" textLength="146.4" clip-path="url(#terminal-563714682-line-16)">&#160;&#160;Your&#160;Color</text><text class="terminal-563714682-r2" x="976" y="410.4" textLength="12.2" clip-path="url(#terminal-563714682-line-16)">
</text><text class="terminal-563714682-r1" x="0" y="434.8" textLength="12.2" clip-path="url(#terminal-563714682-line-17)">│</text><text class="terminal-563714682-r2" x="976" y="434.8" textLength="12.2" clip-path="url(#terminal-563714682-line-17)">
</text><text class="terminal-563714682-r1" x="0" y="459.2" textLength="12.2" clip-path="url(#terminal-563714682-line-18)">│</text><text class="terminal-563714682-r11" x="48.8" y="459.2" textLength="12.2" clip-path="url(#terminal-563714682-line-18)">▐</text><text class="terminal-563714682-r12" x="61" y="459.2" textLength="12.2" clip-path="url(#terminal-563714682-line-18)">●</text><text class="terminal-563714682-r11" x="73.2" y="459.2" textLength="12.2" clip-path="url(#terminal-563714682-line-18)">▌</text><text class="terminal-563714682-r8" x="85.4" y="459.2" textLength="61" clip-path="url(#terminal-563714682-line-18)">&#160;Red&#160;</text><text class="terminal-563714682-r11" x="170.8" y="459.2" textLength="12.2" clip-path="url(#terminal-563714682-line-18)">▐</text><text class="terminal-563714682-r12" x="183" y="459.2" textLength="12.2" clip-path="url(#terminal-563714682-line-18)">●</text><text class="terminal-563714682-r11" x="195.2" y="459.2" textLength="12.2" clip-path="url(#terminal-563714682-line-18)">▌</text><text class="terminal-563714682-r8" x="207.4" y="459.2" textLength="73.2" clip-path="url(#terminal-563714682-line-18)">&#160;Blue&#160;</text><text class="terminal-563714682-r11" x="305" y="459.2" textLength="12.2" clip-path="url(#terminal-563714682-line-18)">▐</text><text class="terminal-563714682-r12" x="317.2" y="459.2" textLength="12.2" clip-path="url(#terminal-563714682-line-18)">●</text><text class="terminal-563714682-r11" x="329.4" y="459.2" textLength="12.2" clip-path="url(#terminal-563714682-line-18)">▌</text><text class="terminal-563714682-r8" x="341.6" y="459.2" textLength="85.4" clip-path="url(#terminal-563714682-line-18)">&#160;Green&#160;</text><text class="terminal-563714682-r11" x="427" y="459.2" textLength="12.2" clip-path="url(#terminal-563714682-line-18)">▐</text><text class="terminal-563714682-r12" x="439.2" y="459.2" textLength="12.2" clip-path="url(#terminal-563714682-line-18)">●</text><text class="terminal-563714682-r11" x="451.4" y="459.2" textLength="12.2" clip-path="url(#terminal-563714682-line-18)">▌</text><text class="terminal-563714682-r8" x="463.6" y="459.2" textLength="97.6" clip-path="url(#terminal-563714682-line-18)">&#160;Yellow&#160;</text><text class="terminal-563714682-r11" x="561.2" y="459.2" textLength="12.2" clip-path="url(#terminal-563714682-line-18)">▐</text><text class="terminal-563714682-r12" x="573.4" y="459.2" textLength="12.2" clip-path="url(#terminal-563714682-line-18)">●</text><text class="terminal-563714682-r11" x="585.6" y="459.2" textLength="12.2" clip-path="url(#terminal-563714682-line-18)">▌</text><text class="terminal-563714682-r8" x="597.8" y="459.2" textLength="85.4" clip-path="url(#terminal-563714682-line-18)">&#160;White&#160;</text><text class="terminal-563714682-r11" x="683.2" y="459.2" textLength="12.2" clip-path="url(#terminal-563714682-line-18)">▐</text><text class="terminal-563714682-r12" x="695.4" y="459.2" textLength="12.2" clip-path="url(#terminal-563714682-line-18)">●</text><text class="terminal-563714682-r11" x="707.6" y="459.2" textLength="12.2" clip-path="url(#terminal-563714682-line-18)">▌</text><text class="terminal-563714682-r8" x="719.8" y="459.2" textLength="73.2" clip-path="url(#terminal-563714682-line-18)">&#160;Gold&#160;</text><text class="terminal-563714682-r11" x="817.4" y="459.2" textLength="12.2" clip-path="url(#terminal-563714682-line-18)">▐</text><text class="terminal-563714682-r12" x="829.6" y="459.2" textLength="12.2" clip-path="url(#terminal-563714682-line-18)">●</text><text class="terminal-563714682-r11" x="841.8" y="459.2" textLength="12.2" clip-path="url(#terminal-563714682-line-18)">▌</text><text class="terminal-563714682-r8" x="854" y="459.2" textLength="97.6" clip-path="url(#terminal-563714682-line-18)">&#160;Silver&#160;</text><text class="terminal-563714682-r2" x="976" y="459.2" textLength="12.2" clip-path="url(#terminal-563714682-line-18)">
</text><text class="terminal-563714682-r1" x="0" y="483.6" textLength="12.2" clip-path="url(#terminal-563714682-line-19)">│</text><text class="terminal-563714682-r2" x="976" y="483.6" textLength="12.2" clip-path="url(#terminal-563714682-line-19)">
</text><text class="terminal-563714682-r1" x="0" y="508" textLength="12.2" clip-path="url(#terminal-563714682-line-20)">│</text><text class="terminal-563714682-r11" x="48.8" y="508" textLength="12.2" clip-path="url(#terminal-563714682-line-20)">▐</text><text class="terminal-563714682-r12" x="61" y="508" textLength="12.2" clip-path="url(#terminal-563714682-line-20)">●</text><text class="terminal-563714682-r11" x="73.2" y="508" textLength="12.2" clip-path="url(#terminal-563714682-line-20)">▌</text><text class="terminal-563714682-r8" x="85.4" y="508" textLength="73.2" clip-path="url(#terminal-563714682-line-20)">&#160;Rose&#160;</text><text class="terminal-563714682-r11" x="170.8" y="508" textLength="12.2" clip-path="url(#terminal-563714682-line-20)">▐</text><text class="terminal-563714682-r12" x="183" y="508" textLength="12.2" clip-path="url(#terminal-563714682-line-20)">●</text><text class="terminal-563714682-r11" x="195.2" y="508" textLength="12.2" clip-path="url(#terminal-563714682-line-20)">▌</text><text class="terminal-563714682-r8" x="207.4" y="508" textLength="97.6" clip-path="url(#terminal-563714682-line-20)">&#160;Lavend…</text><text class="terminal-563714682-r11" x="305" y="508" textLength="12.2" clip-path="url(#terminal-563714682-line-20)">▐</text><text class="terminal-563714682-r12" x="317.2" y="508" textLength="12.2" clip-path="url(#terminal-563714682-line-20)">●</text><text class="terminal-563714682-r11" x="329.4" y="508" textLength="12.2" clip-path="url(#terminal-563714682-line-20)">▌</text><text class="terminal-563714682-r8" x="341.6" y="508" textLength="85.4" clip-path="url(#terminal-563714682-line-20)">&#160;Peach&#160;</text><text class="terminal-563714682-r11" x="427" y="508" textLength="12.2" clip-path="url(#terminal-563714682-line-20)">▐</text><text class="terminal-563714682-r12" x="439.2" y="508" textLength="12.2" clip-path="url(#terminal-563714682-line-20)">●</text><text class="terminal-563714682-r11" x="451.4" y="508" textLength="12.2" clip-path="url(#terminal-563714682-line-20)">▌</text><text class="terminal-563714682-r8" x="463.6" y="508" textLength="73.2" clip-path="url(#terminal-563714682-line-20)">&#160;Mint&#160;</text><text class="terminal-563714682-r11" x="561.2" y="508" textLength="12.2" clip-path="url(#terminal-563714682-line-20)">▐</text><text class="terminal-563714682-r12" x="573.4" y="508" textLength="12.2" clip-path="url(#terminal-563714682-line-20)">●</text><text class="terminal-563714682-r11" x="585.6" y="508" textLength="12.2" clip-path="url(#terminal-563714682-line-20)">▌</text><text class="terminal-563714682-r8" x="597.8" y="508" textLength="85.4" clip-path="url(#terminal-563714682-line-20)">&#160;Coral&#160;</text><text class="terminal-563714682-r11" x="683.2" y="508" textLength="12.2" clip-path="url(#terminal-563714682-line-20)">▐</text><text class="terminal-563714682-r13" x="695.4" y="508" textLength="12.2" clip-path="url(#terminal-563714682-line-20)">●</text><text class="terminal-563714682-r11" x="707.6" y="508" textLength="12.2" clip-path="url(#terminal-563714682-line-20)">▌</text><text class="terminal-563714682-r8" x="719.8" y="508" textLength="97.6" clip-path="url(#terminal-563714682-line-20)">&#160;Random&#160;</text><text class="terminal-563714682-r11" x="817.4" y="508" textLength="12.2" clip-path="url(#terminal-563714682-line-20)">▐</text><text class="terminal-563714682-r12" x="829.6" y="508" textLength="12.2" clip-path="url(#terminal-563714682-line-20)">●</text><text class="terminal-563714682-r11" x="841.8" y="508" textLength="12.2" clip-path="url(#terminal-563714682-line-20)">▌</text><text class="terminal-563714682-r8" x="854" y="508" textLength="97.6" clip-path="url(#terminal-563714682-line-20)">&#160;Custom&#160;</text><text class="terminal-563714682-r2" x="976" y="508" textLength="12.2" clip-path="url(#terminal-563714682-line-20)">
</text><text class="terminal-563714682-r1" x="0" y="532.4" textLength="12.2" clip-path="url(#terminal-563714682-line-21)">│</text><text class="terminal-563714682-r2" x="976" y="532.4" textLength="12.2" clip-path="url(#terminal-563714682-line-21)">
</text><text class="terminal-563714682-r1" x="0" y="556.8" textLength="12.2" clip-path="url(#terminal-563714682-line-22)">│</text><text class="terminal-563714682-r2" x="976" y="556.8" textLength="12.2" clip-path="url(#terminal-563714682-line-22)">
</text><text class="terminal-563714682-r1" x="0" y="581.2" textLength="12.2" clip-path="url(#terminal-563714682-line-23)">│</text>
    </g>
    </g>
</svg>
