<svg class="rich-terminal" viewBox="0 0 1482 904.0" xmlns="http://www.w3.org/2000/svg">
    <!-- Generated with Rich https://www.textualize.io -->
    <style>

    @font-face {
        font-family: "Fira Code";
        src: local("FiraCode-Regular"),
                url("https://cdnjs.cloudflare.com/ajax/libs/firacode/6.2.0/woff2/FiraCode-Regular.woff2") format("woff2"),
                url("https://cdnjs.cloudflare.com/ajax/libs/firacode/6.2.0/woff/FiraCode-Regular.woff") format("woff");
        font-style: normal;
        font-weight: 400;
    }
    @font-face {
        font-family: "Fira Code";
        src: local("FiraCode-Bold"),
                url("https://cdnjs.cloudflare.com/ajax/libs/firacode/6.2.0/woff2/FiraCode-Bold.woff2") format("woff2"),
                url("https://cdnjs.cloudflare.com/ajax/libs/firacode/6.2.0/woff/FiraCode-Bold.woff") format("woff");
        font-style: bold;
        font-weight: 700;
    }

    .terminal-3069546035-matrix {
        font-family: Fira Code, monospace;
        font-size: 20px;
        line-height: 24.4px;
        font-variant-east-asian: full-width;
    }

    .terminal-3069546035-title {
        font-size: 18px;
        font-weight: bold;
        font-family: arial;
    }

    .terminal-3069546035-r1 { fill: #ffffff }
.terminal-3069546035-r2 { fill: #c5c8c6 }
.terminal-3069546035-r3 { fill: #0f0f0f }
.terminal-3069546035-r4 { fill: #434343 }
.terminal-3069546035-r5 { fill: #2c2c2c }
.terminal-3069546035-r6 { fill: #0f3b1a }
.terminal-3069546035-r7 { fill: #282828 }
.terminal-3069546035-r8 { fill: #4c4c4c }
.terminal-3069546035-r9 { fill: #004c3a;font-weight: bold }
.terminal-3069546035-r10 { fill: #333333 }
.terminal-3069546035-r11 { fill: #ffffff;font-weight: bold }
.terminal-3069546035-r12 { fill: #888888 }
.terminal-3069546035-r13 { fill: #000000;font-weight: bold }
.terminal-3069546035-r14 { fill: #000000 }
.terminal-3069546035-r15 { fill: #070707 }
.terminal-3069546035-r16 { fill: #050505 }
.terminal-3069546035-r17 { fill: #4c4c4c;font-weight: bold }
    </style>

    <defs>
    <clipPath id="terminal-3069546035-clip-terminal">
      <rect x="0" y="0" width="1463.0" height="853.0" />
    </clipPath>
    <clipPath id="terminal-3069546035-line-0">
    <rect x="0" y="1.5" width="1464" height="24.65"/>
            </clipPath>
<clipPath id="terminal-3069546035-line-1">
    <rect x="0" y="25.9" width="1464" height="24.65"/>
            </clipPath>
<clipPath id="terminal-3069546035-line-2">
    <rect x="0" y="50.3" width="1464" height="24.65"/>
            </clipPath>
<clipPath id="terminal-3069546035-line-3">
    <rect x="0" y="74.7" width="1464" height="24.65"/>
            </clipPath>
<clipPath id="terminal-3069546035-line-4">
    <rect x="0" y="99.1" width="1464" height="24.65"/>
            </clipPath>
<clipPath id="terminal-3069546035-line-5">
    <rect x="0" y="123.5" width="1464" height="24.65"/>
            </clipPath>
<clipPath id="terminal-3069546035-line-6">
    <rect x="0" y="147.9" width="1464" height="24.65"/>
            </clipPath>
<clipPath id="terminal-3069546035-line-7">
    <rect x="0" y="172.3" width="1464" height="24.65"/>
            </clipPath>
<clipPath id="terminal-3069546035-line-8">
    <rect x="0" y="196.7" width="1464" height="24.65"/>
            </clipPath>
<clipPath id="terminal-3069546035-line-9">
    <rect x="0" y="221.1" width="1464" height="24.65"/>
            </clipPath>
<clipPath id="terminal-3069546035-line-10">
    <rect x="0" y="245.5" width="1464" height="24.65"/>
            </clipPath>
<clipPath id="terminal-3069546035-line-11">
    <rect x="0" y="269.9" width="1464" height="24.65"/>
            </clipPath>
<clipPath id="terminal-3069546035-line-12">
    <rect x="0" y="294.3" width="1464" height="24.65"/>
            </clipPath>
<clipPath id="terminal-3069546035-line-13">
    <rect x="0" y="318.7" width="1464" height="24.65"/>
            </clipPath>
<clipPath id="terminal-3069546035-line-14">
    <rect x="0" y="343.1" width="1464" height="24.65"/>
            </clipPath>
<clipPath id="terminal-3069546035-line-15">
    <rect x="0" y="367.5" width="1464" height="24.65"/>
            </clipPath>
<clipPath id="terminal-3069546035-line-16">
    <rect x="0" y="391.9" width="1464" height="24.65"/>
            </clipPath>
<clipPath id="terminal-3069546035-line-17">
    <rect x="0" y="416.3" width="1464" height="24.65"/>
            </clipPath>
<clipPath id="terminal-3069546035-line-18">
    <rect x="0" y="440.7" width="1464" height="24.65"/>
            </clipPath>
<clipPath id="terminal-3069546035-line-19">
    <rect x="0" y="465.1" width="1464" height="24.65"/>
            </clipPath>
<clipPath id="terminal-3069546035-line-20">
    <rect x="0" y="489.5" width="1464" height="24.65"/>
            </clipPath>
<clipPath id="terminal-3069546035-line-21">
    <rect x="0" y="513.9" width="1464" height="24.65"/>
            </clipPath>
<clipPath id="terminal-3069546035-line-22">
    <rect x="0" y="538.3" width="1464" height="24.65"/>
            </clipPath>
<clipPath id="terminal-3069546035-line-23">
    <rect x="0" y="562.7" width="1464" height="24.65"/>
            </clipPath>
<clipPath id="terminal-3069546035-line-24">
    <rect x="0" y="587.1" width="1464" height="24.65"/>
            </clipPath>
<clipPath id="terminal-3069546035-line-25">
    <rect x="0" y="611.5" width="1464" height="24.65"/>
            </clipPath>
<clipPath id="terminal-3069546035-line-26">
    <rect x="0" y="635.9" width="1464" height="24.65"/>
            </clipPath>
<clipPath id="terminal-3069546035-line-27">
    <rect x="0" y="660.3" width="1464" height="24.65"/>
            </clipPath>
<clipPath id="terminal-3069546035-line-28">
    <rect x="0" y="684.7" width="1464" height="24.65"/>
            </clipPath>
<clipPath id="terminal-3069546035-line-29">
    <rect x="0" y="709.1" width="1464" height="24.65"/>
            </clipPath>
<clipPath id="terminal-3069546035-line-30">
    <rect x="0" y="733.5" width="1464" height="24.65"/>
            </clipPath>
<clipPath id="terminal-3069546035-line-31">
    <rect x="0" y="757.9" width="1464" height="24.65"/>
            </clipPath>
<clipPath id="terminal-3069546035-line-32">
    <rect x="0" y="782.3" width="1464" height="24.65"/>
            </clipPath>
<clipPath id="terminal-3069546035-line-33">
    <rect x="0" y="806.7" width="1464" height="24.65"/>
            </clipPath>
    </defs>

    <rect fill="#292929" stroke="rgba(255,255,255,0.35)" stroke-width="1" x="1" y="1" width="1480" height="902" rx="8"/><text class="terminal-3069546035-title" fill="#c5c8c6" text-anchor="middle" x="740" y="27">OpenChatTUI</text>
            <g transform="translate(26,22)">
            <circle cx="0" cy="0" r="7" fill="#ff5f57"/>
            <circle cx="22" cy="0" r="7" fill="#febc2e"/>
            <circle cx="44" cy="0" r="7" fill="#28c840"/>
            </g>
        
    <g transform="translate(9, 41)" clip-path="url(#terminal-3069546035-clip-terminal)">
    <rect fill="#000000" x="0" y="1.5" width="1464" height="24.65" shape-rendering="crispEdges"/><rect fill="#000000" x="0" y="25.9" width="1464" height="24.65" shape-rendering="crispEdges"/><rect fill="#000000" x="0" y="50.3" width="1464" height="24.65" shape-rendering="crispEdges"/><rect fill="#000000" x="0" y="74.7" width="158.6" height="24.65" shape-rendering="crispEdges"/><rect fill="#000000" x="158.6" y="74.7" width="109.8" height="24.65" shape-rendering="crispEdges"/><rect fill="#000000" x="268.4" y="74.7" width="512.4" height="24.65" shape-rendering="crispEdges"/><rect fill="#000000" x="780.8" y="74.7" width="170.8" height="24.65" shape-rendering="crispEdges"/><rect fill="#000000" x="951.6" y="74.7" width="195.2" height="24.65" shape-rendering="crispEdges"/><rect fill="#000000" x="1146.8" y="74.7" width="24.4" height="24.65" shape-rendering="crispEdges"/><rect fill="#000000" x="1171.2" y="74.7" width="12.2" height="24.65" shape-rendering="crispEdges"/><rect fill="#000000" x="1183.4" y="74.7" width="280.6" height="24.65" shape-rendering="crispEdges"/><rect fill="#000000" x="0" y="99.1" width="244" height="24.65" shape-rendering="crispEdges"/><rect fill="#000000" x="244" y="99.1" width="109.8" height="24.65" shape-rendering="crispEdges"/><rect fill="#000000" x="353.8" y="99.1" width="341.6" height="24.65" shape-rendering="crispEdges"/><rect fill="#000000" x="695.4" y="99.1" width="256.2" height="24.65" shape-rendering="crispEdges"/><rect fill="#000000" x="951.6" y="99.1" width="195.2" height="24.65" shape-rendering="crispEdges"/><rect fill="#000000" x="1146.8" y="99.1" width="24.4" height="24.65" shape-rendering="crispEdges"/><rect fill="#000000" x="1171.2" y="99.1" width="12.2" height="24.65" shape-rendering="crispEdges"/><rect fill="#000000" x="1183.4" y="99.1" width="85.4" height="24.65" shape-rendering="crispEdges"/><rect fill="#000000" x="1268.8" y="99.1" width="195.2" height="24.65" shape-rendering="crispEdges"/><rect fill="#000000" x="0" y="123.5" width="109.8" height="24.65" shape-rendering="crispEdges"/><rect fill="#000000" x="109.8" y="123.5" width="85.4" height="24.65" shape-rendering="crispEdges"/><rect fill="#000000" x="195.2" y="123.5" width="427" height="24.65" shape-rendering="crispEdges"/><rect fill="#000000" x="622.2" y="123.5" width="524.6" height="24.65" shape-rendering="crispEdges"/><rect fill="#000000" x="1146.8" y="123.5" width="24.4" height="24.65" shape-rendering="crispEdges"/><rect fill="#000000" x="1171.2" y="123.5" width="12.2" height="24.65" shape-rendering="crispEdges"/><rect fill="#000000" x="1183.4" y="123.5" width="219.6" height="24.65" shape-rendering="crispEdges"/><rect fill="#000000" x="1403" y="123.5" width="61" height="24.65" shape-rendering="crispEdges"/><rect fill="#000000" x="0" y="147.9" width="1146.8" height="24.65" shape-rendering="crispEdges"/><rect fill="#000000" x="1146.8" y="147.9" width="24.4" height="24.65" shape-rendering="crispEdges"/><rect fill="#000000" x="1171.2" y="147.9" width="12.2" height="24.65" shape-rendering="crispEdges"/><rect fill="#000000" x="1183.4" y="147.9" width="280.6" height="24.65" shape-rendering="crispEdges"/><rect fill="#000000" x="0" y="172.3" width="1146.8" height="24.65" shape-rendering="crispEdges"/><rect fill="#000000" x="1146.8" y="172.3" width="24.4" height="24.65" shape-rendering="crispEdges"/><rect fill="#000000" x="1171.2" y="172.3" width="292.8" height="24.65" shape-rendering="crispEdges"/><rect fill="#000000" x="0" y="196.7" width="1146.8" height="24.65" shape-rendering="crispEdges"/><rect fill="#000000" x="1146.8" y="196.7" width="24.4" height="24.65" shape-rendering="crispEdges"/><rect fill="#000000" x="1171.2" y="196.7" width="292.8" height="24.65" shape-rendering="crispEdges"/><rect fill="#000000" x="0" y="221.1" width="1146.8" height="24.65" shape-rendering="crispEdges"/><rect fill="#000000" x="1146.8" y="221.1" width="24.4" height="24.65" shape-rendering="crispEdges"/><rect fill="#000000" x="1171.2" y="221.1" width="292.8" height="24.65" shape-rendering="crispEdges"/><rect fill="#000000" x="0" y="245.5" width="1146.8" height="24.65" shape-rendering="crispEdges"/><rect fill="#000000" x="1146.8" y="245.5" width="24.4" height="24.65" shape-rendering="crispEdges"/><rect fill="#000000" x="1171.2" y="245.5" width="292.8" height="24.65" shape-rendering="crispEdges"/><rect fill="#000000" x="0" y="269.9" width="427" height="24.65" shape-rendering="crispEdges"/><rect fill="#000000" x="427" y="269.9" width="12.2" height="24.65" shape-rendering="crispEdges"/><rect fill="#000000" x="439.2" y="269.9" width="585.6" height="24.65" shape-rendering="crispEdges"/><rect fill="#000000" x="1024.8" y="269.9" width="12.2" height="24.65" shape-rendering="crispEdges"/><rect fill="#000000" x="1037" y="269.9" width="109.8" height="24.65" shape-rendering="crispEdges"/><rect fill="#000000" x="1146.8" y="269.9" width="24.4" height="24.65" shape-rendering="crispEdges"/><rect fill="#000000" x="1171.2" y="269.9" width="292.8" height="24.65" shape-rendering="crispEdges"/><rect fill="#000000" x="0" y="294.3" width="427" height="24.65" shape-rendering="crispEdges"/><rect fill="#000000" x="427" y="294.3" width="12.2" height="24.65" shape-rendering="crispEdges"/><rect fill="#000000" x="439.2" y="294.3" width="585.6" height="24.65" shape-rendering="crispEdges"/><rect fill="#000000" x="1024.8" y="294.3" width="12.2" height="24.65" shape-rendering="crispEdges"/><rect fill="#000000" x="1037" y="294.3" width="109.8" height="24.65" shape-rendering="crispEdges"/><rect fill="#000000" x="1146.8" y="294.3" width="24.4" height="24.65" shape-rendering="crispEdges"/><rect fill="#000000" x="1171.2" y="294.3" width="292.8" height="24.65" shape-rendering="crispEdges"/><rect fill="#000000" x="0" y="318.7" width="427" height="24.65" shape-rendering="crispEdges"/><rect fill="#000000" x="427" y="318.7" width="12.2" height="24.65" shape-rendering="crispEdges"/><rect fill="#000000" x="439.2" y="318.7" width="24.4" height="24.65" shape-rendering="crispEdges"/><rect fill="#000000" x="463.6" y="318.7" width="158.6" height="24.65" shape-rendering="crispEdges"/><rect fill="#000000" x="622.2" y="318.7" width="207.4" height="24.65" shape-rendering="crispEdges"/><rect fill="#000000" x="829.6" y="318.7" width="170.8" height="24.65" shape-rendering="crispEdges"/><rect fill="#000000" x="1000.4" y="318.7" width="24.4" height="24.65" shape-rendering="crispEdges"/><rect fill="#000000" x="1024.8" y="318.7" width="12.2" height="24.65" shape-rendering="crispEdges"/><rect fill="#000000" x="1037" y="318.7" width="109.8" height="24.65" shape-rendering="crispEdges"/><rect fill="#000000" x="1146.8" y="318.7" width="24.4" height="24.65" shape-rendering="crispEdges"/><rect fill="#000000" x="1171.2" y="318.7" width="292.8" height="24.65" shape-rendering="crispEdges"/><rect fill="#000000" x="0" y="343.1" width="427" height="24.65" shape-rendering="crispEdges"/><rect fill="#000000" x="427" y="343.1" width="12.2" height="24.65" shape-rendering="crispEdges"/><rect fill="#000000" x="439.2" y="343.1" width="24.4" height="24.65" shape-rendering="crispEdges"/><rect fill="#000000" x="463.6" y="343.1" width="536.8" height="24.65" shape-rendering="crispEdges"/><rect fill="#000000" x="1000.4" y="343.1" width="24.4" height="24.65" shape-rendering="crispEdges"/><rect fill="#000000" x="1024.8" y="343.1" width="12.2" height="24.65" shape-rendering="crispEdges"/><rect fill="#000000" x="1037" y="343.1" width="109.8" height="24.65" shape-rendering="crispEdges"/><rect fill="#000000" x="1146.8" y="343.1" width="24.4" height="24.65" shape-rendering="crispEdges"/><rect fill="#000000" x="1171.2" y="343.1" width="292.8" height="24.65" shape-rendering="crispEdges"/><rect fill="#000000" x="0" y="367.5" width="427" height="24.65" shape-rendering="crispEdges"/><rect fill="#000000" x="427" y="367.5" width="12.2" height="24.65" shape-rendering="crispEdges"/><rect fill="#000000" x="439.2" y="367.5" width="24.4" height="24.65" shape-rendering="crispEdges"/><rect fill="#000000" x="463.6" y="367.5" width="85.4" height="24.65" shape-rendering="crispEdges"/><rect fill="#000000" x="549" y="367.5" width="366" height="24.65" shape-rendering="crispEdges"/><rect fill="#000000" x="915" y="367.5" width="85.4" height="24.65" shape-rendering="crispEdges"/><rect fill="#000000" x="1000.4" y="367.5" width="24.4" height="24.65" shape-rendering="crispEdges"/><rect fill="#000000" x="1024.8" y="367.5" width="12.2" height="24.65" shape-rendering="crispEdges"/><rect fill="#000000" x="1037" y="367.5" width="109.8" height="24.65" shape-rendering="crispEdges"/><rect fill="#000000" x="1146.8" y="367.5" width="24.4" height="24.65" shape-rendering="crispEdges"/><rect fill="#000000" x="1171.2" y="367.5" width="292.8" height="24.65" shape-rendering="crispEdges"/><rect fill="#000000" x="0" y="391.9" width="427" height="24.65" shape-rendering="crispEdges"/><rect fill="#000000" x="427" y="391.9" width="12.2" height="24.65" shape-rendering="crispEdges"/><rect fill="#000000" x="439.2" y="391.9" width="24.4" height="24.65" shape-rendering="crispEdges"/><rect fill="#000000" x="463.6" y="391.9" width="24.4" height="24.65" shape-rendering="crispEdges"/><rect fill="#000000" x="488" y="391.9" width="475.8" height="24.65" shape-rendering="crispEdges"/><rect fill="#000000" x="963.8" y="391.9" width="36.6" height="24.65" shape-rendering="crispEdges"/><rect fill="#000000" x="1000.4" y="391.9" width="24.4" height="24.65" shape-rendering="crispEdges"/><rect fill="#000000" x="1024.8" y="391.9" width="12.2" height="24.65" shape-rendering="crispEdges"/><rect fill="#000000" x="1037" y="391.9" width="109.8" height="24.65" shape-rendering="crispEdges"/><rect fill="#000000" x="1146.8" y="391.9" width="24.4" height="24.65" shape-rendering="crispEdges"/><rect fill="#000000" x="1171.2" y="391.9" width="292.8" height="24.65" shape-rendering="crispEdges"/><rect fill="#000000" x="0" y="416.3" width="427" height="24.65" shape-rendering="crispEdges"/><rect fill="#000000" x="427" y="416.3" width="12.2" height="24.65" shape-rendering="crispEdges"/><rect fill="#000000" x="439.2" y="416.3" width="24.4" height="24.65" shape-rendering="crispEdges"/><rect fill="#000000" x="463.6" y="416.3" width="536.8" height="24.65" shape-rendering="crispEdges"/><rect fill="#000000" x="1000.4" y="416.3" width="24.4" height="24.65" shape-rendering="crispEdges"/><rect fill="#000000" x="1024.8" y="416.3" width="12.2" height="24.65" shape-rendering="crispEdges"/><rect fill="#000000" x="1037" y="416.3" width="109.8" height="24.65" shape-rendering="crispEdges"/><rect fill="#000000" x="1146.8" y="416.3" width="24.4" height="24.65" shape-rendering="crispEdges"/><rect fill="#000000" x="1171.2" y="416.3" width="292.8" height="24.65" shape-rendering="crispEdges"/><rect fill="#000000" x="0" y="440.7" width="427" height="24.65" shape-rendering="crispEdges"/><rect fill="#000000" x="427" y="440.7" width="12.2" height="24.65" shape-rendering="crispEdges"/><rect fill="#000000" x="439.2" y="440.7" width="24.4" height="24.65" shape-rendering="crispEdges"/><rect fill="#000000" x="463.6" y="440.7" width="536.8" height="24.65" shape-rendering="crispEdges"/><rect fill="#000000" x="1000.4" y="440.7" width="24.4" height="24.65" shape-rendering="crispEdges"/><rect fill="#000000" x="1024.8" y="440.7" width="12.2" height="24.65" shape-rendering="crispEdges"/><rect fill="#000000" x="1037" y="440.7" width="109.8" height="24.65" shape-rendering="crispEdges"/><rect fill="#000000" x="1146.8" y="440.7" width="24.4" height="24.65" shape-rendering="crispEdges"/><rect fill="#000000" x="1171.2" y="440.7" width="292.8" height="24.65" shape-rendering="crispEdges"/><rect fill="#000000" x="0" y="465.1" width="427" height="24.65" shape-rendering="crispEdges"/><rect fill="#000000" x="427" y="465.1" width="12.2" height="24.65" shape-rendering="crispEdges"/><rect fill="#000000" x="439.2" y="465.1" width="24.4" height="24.65" shape-rendering="crispEdges"/><rect fill="#000000" x="463.6" y="465.1" width="36.6" height="24.65" shape-rendering="crispEdges"/><rect fill="#fdfdfd" x="500.2" y="465.1" width="12.2" height="24.65" shape-rendering="crispEdges"/><rect fill="#fdfdfd" x="512.4" y="465.1" width="183" height="24.65" shape-rendering="crispEdges"/><rect fill="#fdfdfd" x="695.4" y="465.1" width="24.4" height="24.65" shape-rendering="crispEdges"/><rect fill="#000000" x="719.8" y="465.1" width="12.2" height="24.65" shape-rendering="crispEdges"/><rect fill="#882222" x="732" y="465.1" width="24.4" height="24.65" shape-rendering="crispEdges"/><rect fill="#882222" x="756.4" y="465.1" width="158.6" height="24.65" shape-rendering="crispEdges"/><rect fill="#882222" x="915" y="465.1" width="36.6" height="24.65" shape-rendering="crispEdges"/><rect fill="#000000" x="951.6" y="465.1" width="48.8" height="24.65" shape-rendering="crispEdges"/><rect fill="#000000" x="1000.4" y="465.1" width="24.4" height="24.65" shape-rendering="crispEdges"/><rect fill="#000000" x="1024.8" y="465.1" width="12.2" height="24.65" shape-rendering="crispEdges"/><rect fill="#000000" x="1037" y="465.1" width="109.8" height="24.65" shape-rendering="crispEdges"/><rect fill="#000000" x="1146.8" y="465.1" width="24.4" height="24.65" shape-rendering="crispEdges"/><rect fill="#000000" x="1171.2" y="465.1" width="292.8" height="24.65" shape-rendering="crispEdges"/><rect fill="#000000" x="0" y="489.5" width="427" height="24.65" shape-rendering="crispEdges"/><rect fill="#000000" x="427" y="489.5" width="12.2" height="24.65" shape-rendering="crispEdges"/><rect fill="#000000" x="439.2" y="489.5" width="24.4" height="24.65" shape-rendering="crispEdges"/><rect fill="#000000" x="463.6" y="489.5" width="536.8" height="24.65" shape-rendering="crispEdges"/><rect fill="#000000" x="1000.4" y="489.5" width="24.4" height="24.65" shape-rendering="crispEdges"/><rect fill="#000000" x="1024.8" y="489.5" width="12.2" height="24.65" shape-rendering="crispEdges"/><rect fill="#000000" x="1037" y="489.5" width="109.8" height="24.65" shape-rendering="crispEdges"/><rect fill="#000000" x="1146.8" y="489.5" width="24.4" height="24.65" shape-rendering="crispEdges"/><rect fill="#000000" x="1171.2" y="489.5" width="292.8" height="24.65" shape-rendering="crispEdges"/><rect fill="#000000" x="0" y="513.9" width="427" height="24.65" shape-rendering="crispEdges"/><rect fill="#000000" x="427" y="513.9" width="12.2" height="24.65" shape-rendering="crispEdges"/><rect fill="#000000" x="439.2" y="513.9" width="24.4" height="24.65" shape-rendering="crispEdges"/><rect fill="#000000" x="463.6" y="513.9" width="36.6" height="24.65" shape-rendering="crispEdges"/><rect fill="#000000" x="500.2" y="513.9" width="451.4" height="24.65" shape-rendering="crispEdges"/><rect fill="#000000" x="951.6" y="513.9" width="48.8" height="24.65" shape-rendering="crispEdges"/><rect fill="#000000" x="1000.4" y="513.9" width="24.4" height="24.65" shape-rendering="crispEdges"/><rect fill="#000000" x="1024.8" y="513.9" width="12.2" height="24.65" shape-rendering="crispEdges"/><rect fill="#000000" x="1037" y="513.9" width="109.8" height="24.65" shape-rendering="crispEdges"/><rect fill="#000000" x="1146.8" y="513.9" width="24.4" height="24.65" shape-rendering="crispEdges"/><rect fill="#000000" x="1171.2" y="513.9" width="292.8" height="24.65" shape-rendering="crispEdges"/><rect fill="#000000" x="0" y="538.3" width="427" height="24.65" shape-rendering="crispEdges"/><rect fill="#000000" x="427" y="538.3" width="12.2" height="24.65" shape-rendering="crispEdges"/><rect fill="#000000" x="439.2" y="538.3" width="585.6" height="24.65" shape-rendering="crispEdges"/><rect fill="#000000" x="1024.8" y="538.3" width="12.2" height="24.65" shape-rendering="crispEdges"/><rect fill="#000000" x="1037" y="538.3" width="109.8" height="24.65" shape-rendering="crispEdges"/><rect fill="#000000" x="1146.8" y="538.3" width="24.4" height="24.65" shape-rendering="crispEdges"/><rect fill="#000000" x="1171.2" y="538.3" width="292.8" height="24.65" shape-rendering="crispEdges"/><rect fill="#000000" x="0" y="562.7" width="12.2" height="24.65" shape-rendering="crispEdges"/><rect fill="#000000" x="12.2" y="562.7" width="414.8" height="24.65" shape-rendering="crispEdges"/><rect fill="#000000" x="427" y="562.7" width="12.2" height="24.65" shape-rendering="crispEdges"/><rect fill="#000000" x="439.2" y="562.7" width="585.6" height="24.65" shape-rendering="crispEdges"/><rect fill="#000000" x="1024.8" y="562.7" width="12.2" height="24.65" shape-rendering="crispEdges"/><rect fill="#000000" x="1037" y="562.7" width="414.8" height="24.65" shape-rendering="crispEdges"/><rect fill="#000000" x="1451.8" y="562.7" width="12.2" height="24.65" shape-rendering="crispEdges"/><rect fill="#070707" x="0" y="587.1" width="12.2" height="24.65" shape-rendering="crispEdges"/><rect fill="#000000" x="12.2" y="587.1" width="12.2" height="24.65" shape-rendering="crispEdges"/><rect fill="#000a12" x="24.4" y="587.1" width="73.2" height="24.65" shape-rendering="crispEdges"/><rect fill="#000a12" x="97.6" y="587.1" width="1317.6" height="24.65" shape-rendering="crispEdges"/><rect fill="#000e19" x="1415.2" y="587.1" width="24.4" height="24.65" shape-rendering="crispEdges"/><rect fill="#000000" x="1439.6" y="587.1" width="12.2" height="24.65" shape-rendering="crispEdges"/><rect fill="#000000" x="1451.8" y="587.1" width="12.2" height="24.65" shape-rendering="crispEdges"/><rect fill="#070707" x="0" y="611.5" width="12.2" height="24.65" shape-rendering="crispEdges"/><rect fill="#000000" x="12.2" y="611.5" width="12.2" height="24.65" shape-rendering="crispEdges"/><rect fill="#000000" x="24.4" y="611.5" width="73.2" height="24.65" shape-rendering="crispEdges"/><rect fill="#000000" x="97.6" y="611.5" width="1317.6" height="24.65" shape-rendering="crispEdges"/><rect fill="#000e19" x="1415.2" y="611.5" width="24.4" height="24.65" shape-rendering="crispEdges"/><rect fill="#000000" x="1439.6" y="611.5" width="12.2" height="24.65" shape-rendering="crispEdges"/><rect fill="#000000" x="1451.8" y="611.5" width="12.2" height="24.65" shape-rendering="crispEdges"/><rect fill="#070707" x="0" y="635.9" width="12.2" height="24.65" shape-rendering="crispEdges"/><rect fill="#000000" x="12.2" y="635.9" width="12.2" height="24.65" shape-rendering="crispEdges"/><rect fill="#000000" x="24.4" y="635.9" width="109.8" height="24.65" shape-rendering="crispEdges"/><rect fill="#000000" x="134.2" y="635.9" width="1281" height="24.65" shape-rendering="crispEdges"/><rect fill="#000e19" x="1415.2" y="635.9" width="24.4" height="24.65" shape-rendering="crispEdges"/><rect fill="#000000" x="1439.6" y="635.9" width="12.2" height="24.65" shape-rendering="crispEdges"/><rect fill="#000000" x="1451.8" y="635.9" width="12.2" height="24.65" shape-rendering="crispEdges"/><rect fill="#070707" x="0" y="660.3" width="12.2" height="24.65" shape-rendering="crispEdges"/><rect fill="#000000" x="12.2" y="660.3" width="12.2" height="24.65" shape-rendering="crispEdges"/><rect fill="#000000" x="24.4" y="660.3" width="122" height="24.65" shape-rendering="crispEdges"/><rect fill="#000000" x="146.4" y="660.3" width="1268.8" height="24.65" shape-rendering="crispEdges"/><rect fill="#000e19" x="1415.2" y="660.3" width="24.4" height="24.65" shape-rendering="crispEdges"/><rect fill="#000000" x="1439.6" y="660.3" width="12.2" height="24.65" shape-rendering="crispEdges"/><rect fill="#000000" x="1451.8" y="660.3" width="12.2" height="24.65" shape-rendering="crispEdges"/><rect fill="#070707" x="0" y="684.7" width="12.2" height="24.65" shape-rendering="crispEdges"/><rect fill="#000000" x="12.2" y="684.7" width="12.2" height="24.65" shape-rendering="crispEdges"/><rect fill="#000000" x="24.4" y="684.7" width="73.2" height="24.65" shape-rendering="crispEdges"/><rect fill="#000000" x="97.6" y="684.7" width="1317.6" height="24.65" shape-rendering="crispEdges"/><rect fill="#000e19" x="1415.2" y="684.7" width="24.4" height="24.65" shape-rendering="crispEdges"/><rect fill="#000000" x="1439.6" y="684.7" width="12.2" height="24.65" shape-rendering="crispEdges"/><rect fill="#000000" x="1451.8" y="684.7" width="12.2" height="24.65" shape-rendering="crispEdges"/><rect fill="#070707" x="0" y="709.1" width="12.2" height="24.65" shape-rendering="crispEdges"/><rect fill="#000000" x="12.2" y="709.1" width="12.2" height="24.65" shape-rendering="crispEdges"/><rect fill="#000000" x="24.4" y="709.1" width="73.2" height="24.65" shape-rendering="crispEdges"/><rect fill="#000000" x="97.6" y="709.1" width="1317.6" height="24.65" shape-rendering="crispEdges"/><rect fill="#000e19" x="1415.2" y="709.1" width="24.4" height="24.65" shape-rendering="crispEdges"/><rect fill="#000000" x="1439.6" y="709.1" width="12.2" height="24.65" shape-rendering="crispEdges"/><rect fill="#000000" x="1451.8" y="709.1" width="12.2" height="24.65" shape-rendering="crispEdges"/><rect fill="#070707" x="0" y="733.5" width="12.2" height="24.65" shape-rendering="crispEdges"/><rect fill="#000000" x="12.2" y="733.5" width="12.2" height="24.65" shape-rendering="crispEdges"/><rect fill="#000000" x="24.4" y="733.5" width="146.4" height="24.65" shape-rendering="crispEdges"/><rect fill="#000000" x="170.8" y="733.5" width="1244.4" height="24.65" shape-rendering="crispEdges"/><rect fill="#000e19" x="1415.2" y="733.5" width="24.4" height="24.65" shape-rendering="crispEdges"/><rect fill="#000000" x="1439.6" y="733.5" width="12.2" height="24.65" shape-rendering="crispEdges"/><rect fill="#000000" x="1451.8" y="733.5" width="12.2" height="24.65" shape-rendering="crispEdges"/><rect fill="#070707" x="0" y="757.9" width="12.2" height="24.65" shape-rendering="crispEdges"/><rect fill="#000000" x="12.2" y="757.9" width="12.2" height="24.65" shape-rendering="crispEdges"/><rect fill="#000000" x="24.4" y="757.9" width="85.4" height="24.65" shape-rendering="crispEdges"/><rect fill="#000000" x="109.8" y="757.9" width="1305.4" height="24.65" shape-rendering="crispEdges"/><rect fill="#000e19" x="1415.2" y="757.9" width="24.4" height="24.65" shape-rendering="crispEdges"/><rect fill="#000000" x="1439.6" y="757.9" width="12.2" height="24.65" shape-rendering="crispEdges"/><rect fill="#000000" x="1451.8" y="757.9" width="12.2" height="24.65" shape-rendering="crispEdges"/><rect fill="#000000" x="0" y="782.3" width="1415.2" height="24.65" shape-rendering="crispEdges"/><rect fill="#000000" x="1415.2" y="782.3" width="24.4" height="24.65" shape-rendering="crispEdges"/><rect fill="#000000" x="1439.6" y="782.3" width="24.4" height="24.65" shape-rendering="crispEdges"/><rect fill="#030303" x="0" y="806.7" width="24.4" height="24.65" shape-rendering="crispEdges"/><rect fill="#030303" x="24.4" y="806.7" width="12.2" height="24.65" shape-rendering="crispEdges"/><rect fill="#434343" x="36.6" y="806.7" width="12.2" height="24.65" shape-rendering="crispEdges"/><rect fill="#030303" x="48.8" y="806.7" width="1268.8" height="24.65" shape-rendering="crispEdges"/><rect fill="#030303" x="1317.6" y="806.7" width="24.4" height="24.65" shape-rendering="crispEdges"/><rect fill="#000000" x="1342" y="806.7" width="73.2" height="24.65" shape-rendering="crispEdges"/><rect fill="#000000" x="1415.2" y="806.7" width="24.4" height="24.65" shape-rendering="crispEdges"/><rect fill="#000000" x="1439.6" y="806.7" width="24.4" height="24.65" shape-rendering="crispEdges"/><rect fill="#030303" x="0" y="831.1" width="24.4" height="24.65" shape-rendering="crispEdges"/><rect fill="#030303" x="24.4" y="831.1" width="1293.2" height="24.65" shape-rendering="crispEdges"/><rect fill="#030303" x="1317.6" y="831.1" width="24.4" height="24.65" shape-rendering="crispEdges"/><rect fill="#000000" x="1342" y="831.1" width="24.4" height="24.65" shape-rendering="crispEdges"/><rect fill="#000000" x="1366.4" y="831.1" width="73.2" height="24.65" shape-rendering="crispEdges"/><rect fill="#000000" x="1439.6" y="831.1" width="24.4" height="24.65" shape-rendering="crispEdges"/>
    <g class="terminal-3069546035-matrix">
    <text class="terminal-3069546035-r2" x="1464" y="20" textLength="12.2" clip-path="url(#terminal-3069546035-line-0)">
</text><text class="terminal-3069546035-r2" x="1464" y="44.4" textLength="12.2" clip-path="url(#terminal-3069546035-line-1)">
</text><text class="terminal-3069546035-r3" x="0" y="68.8" textLength="1464" clip-path="url(#terminal-3069546035-line-2)">────────────────────────────────────────────────────────────────────────────────────────────────────────────────────────</text><text class="terminal-3069546035-r2" x="1464" y="68.8" textLength="12.2" clip-path="url(#terminal-3069546035-line-2)">
</text><text class="terminal-3069546035-r5" x="158.6" y="93.2" textLength="109.8" clip-path="url(#terminal-3069546035-line-3)">&#160;&#160;15:52&#160;&#160;</text><text class="terminal-3069546035-r6" x="268.4" y="93.2" textLength="512.4" clip-path="url(#terminal-3069546035-line-3)">Room&#160;created.&#160;Share&#160;your&#160;Chat&#160;ID:&#160;&#160;C4ZLVE5</text><text class="terminal-3069546035-r3" x="1171.2" y="93.2" textLength="12.2" clip-path="url(#terminal-3069546035-line-3)">│</text><text class="terminal-3069546035-r2" x="1464" y="93.2" textLength="12.2" clip-path="url(#terminal-3069546035-line-3)">
</text><text class="terminal-3069546035-r5" x="244" y="117.6" textLength="109.8" clip-path="url(#terminal-3069546035-line-4)">&#160;&#160;15:52&#160;&#160;</text><text class="terminal-3069546035-r7" x="353.8" y="117.6" textLength="341.6" clip-path="url(#terminal-3069546035-line-4)">Waiting&#160;for&#160;peers&#160;to&#160;join...</text><text class="terminal-3069546035-r3" x="1171.2" y="117.6" textLength="12.2" clip-path="url(#terminal-3069546035-line-4)">│</text><text class="terminal-3069546035-r8" x="1183.4" y="117.6" textLength="85.4" clip-path="url(#terminal-3069546035-line-4)">&#160;&#160;Peers</text><text class="terminal-3069546035-r2" x="1464" y="117.6" textLength="12.2" clip-path="url(#terminal-3069546035-line-4)">
</text><text class="terminal-3069546035-r5" x="0" y="142" textLength="109.8" clip-path="url(#terminal-3069546035-line-5)">&#160;&#160;15:52&#160;&#160;</text><text class="terminal-3069546035-r9" x="109.8" y="142" textLength="85.4" clip-path="url(#terminal-3069546035-line-5)">ALICE&#160;&#160;</text><text class="terminal-3069546035-r4" x="195.2" y="142" textLength="427" clip-path="url(#terminal-3069546035-line-5)">Hello&#160;world!&#160;This&#160;is&#160;a&#160;secure&#160;chat.</text><text class="terminal-3069546035-r3" x="1171.2" y="142" textLength="12.2" clip-path="url(#terminal-3069546035-line-5)">│</text><text class="terminal-3069546035-r8" x="1183.4" y="142" textLength="219.6" clip-path="url(#terminal-3069546035-line-5)">&#160;&#160;────────────────</text><text class="terminal-3069546035-r2" x="1464" y="142" textLength="12.2" clip-path="url(#terminal-3069546035-line-5)">
</text><text class="terminal-3069546035-r3" x="1171.2" y="166.4" textLength="12.2" clip-path="url(#terminal-3069546035-line-6)">│</text><text class="terminal-3069546035-r2" x="1464" y="166.4" textLength="12.2" clip-path="url(#terminal-3069546035-line-6)">
</text><text class="terminal-3069546035-r2" x="1464" y="190.8" textLength="12.2" clip-path="url(#terminal-3069546035-line-7)">
</text><text class="terminal-3069546035-r2" x="1464" y="215.2" textLength="12.2" clip-path="url(#terminal-3069546035-line-8)">
</text><text class="terminal-3069546035-r2" x="1464" y="239.6" textLength="12.2" clip-path="url(#terminal-3069546035-line-9)">
</text><text class="terminal-3069546035-r2" x="1464" y="264" textLength="12.2" clip-path="url(#terminal-3069546035-line-10)">
</text><text class="terminal-3069546035-r10" x="427" y="288.4" textLength="12.2" clip-path="url(#terminal-3069546035-line-11)">╭</text><text class="terminal-3069546035-r10" x="439.2" y="288.4" textLength="585.6" clip-path="url(#terminal-3069546035-line-11)">────────────────────────────────────────────────</text><text class="terminal-3069546035-r10" x="1024.8" y="288.4" textLength="12.2" clip-path="url(#terminal-3069546035-line-11)">╮</text><text class="terminal-3069546035-r2" x="1464" y="288.4" textLength="12.2" clip-path="url(#terminal-3069546035-line-11)">
</text><text class="terminal-3069546035-r10" x="427" y="312.8" textLength="12.2" clip-path="url(#terminal-3069546035-line-12)">│</text><text class="terminal-3069546035-r10" x="1024.8" y="312.8" textLength="12.2" clip-path="url(#terminal-3069546035-line-12)">│</text><text class="terminal-3069546035-r2" x="1464" y="312.8" textLength="12.2" clip-path="url(#terminal-3069546035-line-12)">
</text><text class="terminal-3069546035-r10" x="427" y="337.2" textLength="12.2" clip-path="url(#terminal-3069546035-line-13)">│</text><text class="terminal-3069546035-r11" x="622.2" y="337.2" textLength="207.4" clip-path="url(#terminal-3069546035-line-13)">Quit&#160;OpenChatTUI?</text><text class="terminal-3069546035-r10" x="1024.8" y="337.2" textLength="12.2" clip-path="url(#terminal-3069546035-line-13)">│</text><text class="terminal-3069546035-r2" x="1464" y="337.2" textLength="12.2" clip-path="url(#terminal-3069546035-line-13)">
</text><text class="terminal-3069546035-r10" x="427" y="361.6" textLength="12.2" clip-path="url(#terminal-3069546035-line-14)">│</text><text class="terminal-3069546035-r10" x="1024.8" y="361.6" textLength="12.2" clip-path="url(#terminal-3069546035-line-14)">│</text><text class="terminal-3069546035-r2" x="1464" y="361.6" textLength="12.2" clip-path="url(#terminal-3069546035-line-14)">
</text><text class="terminal-3069546035-r10" x="427" y="386" textLength="12.2" clip-path="url(#terminal-3069546035-line-15)">│</text><text class="terminal-3069546035-r12" x="549" y="386" textLength="366" clip-path="url(#terminal-3069546035-line-15)">Are&#160;you&#160;sure&#160;you&#160;want&#160;to&#160;exit?</text><text class="terminal-3069546035-r10" x="1024.8" y="386" textLength="12.2" clip-path="url(#terminal-3069546035-line-15)">│</text><text class="terminal-3069546035-r2" x="1464" y="386" textLength="12.2" clip-path="url(#terminal-3069546035-line-15)">
</text><text class="terminal-3069546035-r10" x="427" y="410.4" textLength="12.2" clip-path="url(#terminal-3069546035-line-16)">│</text><text class="terminal-3069546035-r12" x="488" y="410.4" textLength="475.8" clip-path="url(#terminal-3069546035-line-16)">This&#160;will&#160;trigger&#160;a&#160;secure&#160;memory&#160;wipe.</text><text class="terminal-3069546035-r10" x="1024.8" y="410.4" textLength="12.2" clip-path="url(#terminal-3069546035-line-16)">│</text><text class="terminal-3069546035-r2" x="1464" y="410.4" textLength="12.2" clip-path="url(#terminal-3069546035-line-16)">
</text><text class="terminal-3069546035-r10" x="427" y="434.8" textLength="12.2" clip-path="url(#terminal-3069546035-line-17)">│</text><text class="terminal-3069546035-r10" x="1024.8" y="434.8" textLength="12.2" clip-path="url(#terminal-3069546035-line-17)">│</text><text class="terminal-3069546035-r2" x="1464" y="434.8" textLength="12.2" clip-path="url(#terminal-3069546035-line-17)">
</text><text class="terminal-3069546035-r10" x="427" y="459.2" textLength="12.2" clip-path="url(#terminal-3069546035-line-18)">│</text><text class="terminal-3069546035-r10" x="1024.8" y="459.2" textLength="12.2" clip-path="url(#terminal-3069546035-line-18)">│</text><text class="terminal-3069546035-r2" x="1464" y="459.2" textLength="12.2" clip-path="url(#terminal-3069546035-line-18)">
</text><text class="terminal-3069546035-r10" x="427" y="483.6" textLength="12.2" clip-path="url(#terminal-3069546035-line-19)">│</text><text class="terminal-3069546035-r13" x="512.4" y="483.6" textLength="183" clip-path="url(#terminal-3069546035-line-19)">&#160;Continue&#160;Chat&#160;</text><text class="terminal-3069546035-r11" x="756.4" y="483.6" textLength="158.6" clip-path="url(#terminal-3069546035-line-19)">&#160;Secure&#160;Quit&#160;</text><text class="terminal-3069546035-r10" x="1024.8" y="483.6" textLength="12.2" clip-path="url(#terminal-3069546035-line-19)">│</text><text class="terminal-3069546035-r2" x="1464" y="483.6" textLength="12.2" clip-path="url(#terminal-3069546035-line-19)">
</text><text class="terminal-3069546035-r10" x="427" y="508" textLength="12.2" clip-path="url(#terminal-3069546035-line-20)">│</text><text class="terminal-3069546035-r10" x="1024.8" y="508" textLength="12.2" clip-path="url(#terminal-3069546035-line-20)">│</text><text class="terminal-3069546035-r2" x="1464" y="508" textLength="12.2" clip-path="url(#terminal-3069546035-line-20)">
</text><text class="terminal-3069546035-r10" x="427" y="532.4" textLength="12.2" clip-path="url(#terminal-3069546035-line-21)">│</text><text class="terminal-3069546035-r12" x="500.2" y="532.4" textLength="451.4" clip-path="url(#terminal-3069546035-line-21)">ESC:&#160;Continue&#160;&#160;·&#160;&#160;Ctrl+Q:&#160;Secure&#160;Quit</text><text class="terminal-3069546035-r10" x="1024.8" y="532.4" textLength="12.2" clip-path="url(#terminal-3069546035-line-21)">│</text><text class="terminal-3069546035-r2" x="1464" y="532.4" textLength="12.2" clip-path="url(#terminal-3069546035-line-21)">
</text><text class="terminal-3069546035-r10" x="427" y="556.8" textLength="12.2" clip-path="url(#terminal-3069546035-line-22)">│</text><text class="terminal-3069546035-r10" x="1024.8" y="556.8" textLength="12.2" clip-path="url(#terminal-3069546035-line-22)">│</text><text class="terminal-3069546035-r2" x="1464" y="556.8" textLength="12.2" clip-path="url(#terminal-3069546035-line-22)">
</text><text class="terminal-3069546035-r3" x="0" y="581.2" textLength="12.2" clip-path="url(#terminal-3069546035-line-23)">┌</text><text class="terminal-3069546035-r3" x="12.2" y="581.2" textLength="414.8" clip-path="url(#terminal-3069546035-line-23)">──────────────────────────────────</text><text class="terminal-3069546035-r10" x="427" y="581.2" textLength="12.2" clip-path="url(#terminal-3069546035-line-23)">╰</text><text class="terminal-3069546035-r10" x="439.2" y="581.2" textLength="585.6" clip-path="url(#terminal-3069546035-line-23)">────────────────────────────────────────────────</text><text class="terminal-3069546035-r10" x="1024.8" y="581.2" textLength="12.2" clip-path="url(#terminal-3069546035-line-23)">╯</text><text class="terminal-3069546035-r3" x="1037" y="581.2" textLength="414.8" clip-path="url(#terminal-3069546035-line-23)">──────────────────────────────────</text><text class="terminal-3069546035-r3" x="1451.8" y="581.2" textLength="12.2" clip-path="url(#terminal-3069546035-line-23)">┐</text><text class="terminal-3069546035-r2" x="1464" y="581.2" textLength="12.2" clip-path="url(#terminal-3069546035-line-23)">
</text><text class="terminal-3069546035-r14" x="0" y="605.6" textLength="12.2" clip-path="url(#terminal-3069546035-line-24)">▊</text><text class="terminal-3069546035-r4" x="24.4" y="605.6" textLength="73.2" clip-path="url(#terminal-3069546035-line-24)">/lobby</text><text class="terminal-3069546035-r15" x="1451.8" y="605.6" textLength="12.2" clip-path="url(#terminal-3069546035-line-24)">▎</text><text class="terminal-3069546035-r2" x="1464" y="605.6" textLength="12.2" clip-path="url(#terminal-3069546035-line-24)">
</text><text class="terminal-3069546035-r14" x="0" y="630" textLength="12.2" clip-path="url(#terminal-3069546035-line-25)">▊</text><text class="terminal-3069546035-r8" x="24.4" y="630" textLength="73.2" clip-path="url(#terminal-3069546035-line-25)">/login</text><text class="terminal-3069546035-r15" x="1451.8" y="630" textLength="12.2" clip-path="url(#terminal-3069546035-line-25)">▎</text><text class="terminal-3069546035-r2" x="1464" y="630" textLength="12.2" clip-path="url(#terminal-3069546035-line-25)">
</text><text class="terminal-3069546035-r14" x="0" y="654.4" textLength="12.2" clip-path="url(#terminal-3069546035-line-26)">▊</text><text class="terminal-3069546035-r8" x="24.4" y="654.4" textLength="109.8" clip-path="url(#terminal-3069546035-line-26)">/save&#160;txt</text><text class="terminal-3069546035-r15" x="1451.8" y="654.4" textLength="12.2" clip-path="url(#terminal-3069546035-line-26)">▎</text><text class="terminal-3069546035-r2" x="1464" y="654.4" textLength="12.2" clip-path="url(#terminal-3069546035-line-26)">
</text><text class="terminal-3069546035-r14" x="0" y="678.8" textLength="12.2" clip-path="url(#terminal-3069546035-line-27)">▊</text><text class="terminal-3069546035-r8" x="24.4" y="678.8" textLength="122" clip-path="url(#terminal-3069546035-line-27)">/save&#160;html</text><text class="terminal-3069546035-r15" x="1451.8" y="678.8" textLength="12.2" clip-path="url(#terminal-3069546035-line-27)">▎</text><text class="terminal-3069546035-r2" x="1464" y="678.8" textLength="12.2" clip-path="url(#terminal-3069546035-line-27)">
</text><text class="terminal-3069546035-r14" x="0" y="703.2" textLength="12.2" clip-path="url(#terminal-3069546035-line-28)">▊</text><text class="terminal-3069546035-r8" x="24.4" y="703.2" textLength="73.2" clip-path="url(#terminal-3069546035-line-28)">/clear</text><text class="terminal-3069546035-r15" x="1451.8" y="703.2" textLength="12.2" clip-path="url(#terminal-3069546035-line-28)">▎</text><text class="terminal-3069546035-r2" x="1464" y="703.2" textLength="12.2" clip-path="url(#terminal-3069546035-line-28)">
</text><text class="terminal-3069546035-r14" x="0" y="727.6" textLength="12.2" clip-path="url(#terminal-3069546035-line-29)">▊</text><text class="terminal-3069546035-r8" x="24.4" y="727.6" textLength="73.2" clip-path="url(#terminal-3069546035-line-29)">/peers</text><text class="terminal-3069546035-r15" x="1451.8" y="727.6" textLength="12.2" clip-path="url(#terminal-3069546035-line-29)">▎</text><text class="terminal-3069546035-r2" x="1464" y="727.6" textLength="12.2" clip-path="url(#terminal-3069546035-line-29)">
</text><text class="terminal-3069546035-r14" x="0" y="752" textLength="12.2" clip-path="url(#terminal-3069546035-line-30)">▊</text><text class="terminal-3069546035-r8" x="24.4" y="752" textLength="146.4" clip-path="url(#terminal-3069546035-line-30)">/fingerprint</text><text class="terminal-3069546035-r15" x="1451.8" y="752" textLength="12.2" clip-path="url(#terminal-3069546035-line-30)">▎</text><text class="terminal-3069546035-r2" x="1464" y="752" textLength="12.2" clip-path="url(#terminal-3069546035-line-30)">
</text><text class="terminal-3069546035-r14" x="0" y="776.4" textLength="12.2" clip-path="url(#terminal-3069546035-line-31)">▊</text><text class="terminal-3069546035-r8" x="24.4" y="776.4" textLength="85.4" clip-path="url(#terminal-3069546035-line-31)">/verify</text><text class="terminal-3069546035-r15" x="1451.8" y="776.4" textLength="12.2" clip-path="url(#terminal-3069546035-line-31)">▎</text><text class="terminal-3069546035-r2" x="1464" y="776.4" textLength="12.2" clip-path="url(#terminal-3069546035-line-31)">
</text><text class="terminal-3069546035-r3" x="0" y="800.8" textLength="1415.2" clip-path="url(#terminal-3069546035-line-32)">────────────────────────────────────────────────────────────────────────────────────────────────────────────────────</text><text class="terminal-3069546035-r3" x="1415.2" y="800.8" textLength="24.4" clip-path="url(#terminal-3069546035-line-32)">──</text><text class="terminal-3069546035-r3" x="1439.6" y="800.8" textLength="24.4" clip-path="url(#terminal-3069546035-line-32)">──</text><text class="terminal-3069546035-r2" x="1464" y="800.8" textLength="12.2" clip-path="url(#terminal-3069546035-line-32)">
</text><text class="terminal-3069546035-r8" x="24.4" y="825.2" textLength="12.2" clip-path="url(#terminal-3069546035-line-33)">/</text><text class="terminal-3069546035-r2" x="1464" y="825.2" textLength="12.2" clip-path="url(#terminal-3069546035-line-33)">
</text><text class="terminal-3069546035-r17" x="1366.4" y="849.6" textLength="73.2" clip-path="url(#terminal-3069546035-line-34)">&#160;&#160;E2EE</text>
    </g>
    </g>
</svg>
