<svg class="rich-terminal" viewBox="0 0 994 635.5999999999999" xmlns="http://www.w3.org/2000/svg">
    <!-- Generated with Rich https://www.textualize.io -->
    <style>

    @font-face {
        font-family: "Fira Code";
        src: local("FiraCode-Regular"),
                url("https://cdnjs.cloudflare.com/ajax/libs/firacode/6.2.0/woff2/FiraCode-Regular.woff2") format("woff2"),
                url("https://cdnjs.cloudflare.com/ajax/libs/firacode/6.2.0/woff/FiraCode-Regular.woff") format("woff");
        font-style: normal;
        font-weight: 400;
    }
    @font-face {
        font-family: "Fira Code";
        src: local("FiraCode-Bold"),
                url("https://cdnjs.cloudflare.com/ajax/libs/firacode/6.2.0/woff2/FiraCode-Bold.woff2") format("woff2"),
                url("https://cdnjs.cloudflare.com/ajax/libs/firacode/6.2.0/woff/FiraCode-Bold.woff") format("woff");
        font-style: bold;
        font-weight: 700;
    }

    .terminal-922950137-matrix {
        font-family: Fira Code, monospace;
        font-size: 20px;
        line-height: 24.4px;
        font-variant-east-asian: full-width;
    }

    .terminal-922950137-title {
        font-size: 18px;
        font-weight: bold;
        font-family: arial;
    }

    .terminal-922950137-r1 { fill: #ffffff }
.terminal-922950137-r2 { fill: #c5c8c6 }
.terminal-922950137-r3 { fill: #0f0f0f }
.terminal-922950137-r4 { fill: #434343 }
.terminal-922950137-r5 { fill: #2c2c2c }
.terminal-922950137-r6 { fill: #0f3b1a }
.terminal-922950137-r7 { fill: #282828 }
.terminal-922950137-r8 { fill: #4c4c4c }
.terminal-922950137-r9 { fill: #004c3a;font-weight: bold }
.terminal-922950137-r10 { fill: #333333 }
.terminal-922950137-r11 { fill: #ffffff;font-weight: bold }
.terminal-922950137-r12 { fill: #888888 }
.terminal-922950137-r13 { fill: #000000 }
.terminal-922950137-r14 { fill: #000000;font-weight: bold }
.terminal-922950137-r15 { fill: #070707 }
.terminal-922950137-r16 { fill: #050505 }
.terminal-922950137-r17 { fill: #4c4c4c;font-weight: bold }
    </style>

    <defs>
    <clipPath id="terminal-922950137-clip-terminal">
      <rect x="0" y="0" width="975.0" height="584.5999999999999" />
    </clipPath>
    <clipPath id="terminal-922950137-line-0">
    <rect x="0" y="1.5" width="976" height="24.65"/>
            </clipPath>
<clipPath id="terminal-922950137-line-1">
    <rect x="0" y="25.9" width="976" height="24.65"/>
            </clipPath>
<clipPath id="terminal-922950137-line-2">
    <rect x="0" y="50.3" width="976" height="24.65"/>
            </clipPath>
<clipPath id="terminal-922950137-line-3">
    <rect x="0" y="74.7" width="976" height="24.65"/>
            </clipPath>
<clipPath id="terminal-922950137-line-4">
    <rect x="0" y="99.1" width="976" height="24.65"/>
            </clipPath>
<clipPath id="terminal-922950137-line-5">
    <rect x="0" y="123.5" width="976" height="24.65"/>
            </clipPath>
<clipPath id="terminal-922950137-line-6">
    <rect x="0" y="147.9" width="976" height="24.65"/>
            </clipPath>
<clipPath id="terminal-922950137-line-7">
    <rect x="0" y="172.3" width="976" height="24.65"/>
            </clipPath>
<clipPath id="terminal-922950137-line-8">
    <rect x="0" y="196.7" width="976" height="24.65"/>
            </clipPath>
<clipPath id="terminal-922950137-line-9">
    <rect x="0" y="221.1" width="976" height="24.65"/>
            </clipPath>
<clipPath id="terminal-922950137-line-10">
    <rect x="0" y="245.5" width="976" height="24.65"/>
            </clipPath>
<clipPath id="terminal-922950137-line-11">
    <rect x="0" y="269.9" width="976" height="24.65"/>
            </clipPath>
<clipPath id="terminal-922950137-line-12">
    <rect x="0" y="294.3" width="976" height="24.65"/>
            </clipPath>
<clipPath id="terminal-922950137-line-13">
    <rect x="0" y="318.7" width="976" height="24.65"/>
            </clipPath>
<clipPath id="terminal-922950137-line-14">
    <rect x="0" y="343.1" width="976" height="24.65"/>
            </clipPath>
<clipPath id="terminal-922950137-line-15">
    <rect x="0" y="367.5" width="976" height="24.65"/>
            </clipPath>
<clipPath id="terminal-922950137-line-16">
    <rect x="0" y="391.9" width="976" height="24.65"/>
            </clipPath>
<clipPath id="terminal-922950137-line-17">
    <rect x="0" y="416.3" width="976" height="24.65"/>
            </clipPath>
<clipPath id="terminal-922950137-line-18">
    <rect x="0" y="440.7" width="976" height="24.65"/>
            </clipPath>
<clipPath id="terminal-922950137-line-19">
    <rect x="0" y="465.1" width="976" height="24.65"/>
            </clipPath>
<clipPath id="terminal-922950137-line-20">
    <rect x="0" y="489.5" width="976" height="24.65"/>
            </clipPath>
<clipPath id="terminal-922950137-line-21">
    <rect x="0" y="513.9" width="976" height="24.65"/>
            </clipPath>
<clipPath id="terminal-922950137-line-22">
    <rect x="0" y="538.3" width="976" height="24.65"/>
            </clipPath>
    </defs>

    <rect fill="#292929" stroke="rgba(255,255,255,0.35)" stroke-width="1" x="1" y="1" width="992" height="633.6" rx="8"/><text class="terminal-922950137-title" fill="#c5c8c6" text-anchor="middle" x="496" y="27">OpenChatTUI</text>
            <g transform="translate(26,22)">
            <circle cx="0" cy="0" r="7" fill="#ff5f57"/>
            <circle cx="22" cy="0" r="7" fill="#febc2e"/>
            <circle cx="44" cy="0" r="7" fill="#28c840"/>
            </g>
        
    <g transform="translate(9, 41)" clip-path="url(#terminal-922950137-clip-terminal)">
    <rect fill="#000000" x="0" y="1.5" width="976" height="24.65" shape-rendering="crispEdges"/><rect fill="#000000" x="0" y="25.9" width="976" height="24.65" shape-rendering="crispEdges"/><rect fill="#000000" x="0" y="50.3" width="976" height="24.65" shape-rendering="crispEdges"/><rect fill="#000000" x="0" y="74.7" width="158.6" height="24.65" shape-rendering="crispEdges"/><rect fill="#000000" x="158.6" y="74.7" width="109.8" height="24.65" shape-rendering="crispEdges"/><rect fill="#000000" x="268.4" y="74.7" width="390.4" height="24.65" shape-rendering="crispEdges"/><rect fill="#000000" x="658.8" y="74.7" width="24.4" height="24.65" shape-rendering="crispEdges"/><rect fill="#000000" x="683.2" y="74.7" width="12.2" height="24.65" shape-rendering="crispEdges"/><rect fill="#000000" x="695.4" y="74.7" width="280.6" height="24.65" shape-rendering="crispEdges"/><rect fill="#000000" x="0" y="99.1" width="244" height="24.65" shape-rendering="crispEdges"/><rect fill="#000000" x="244" y="99.1" width="109.8" height="24.65" shape-rendering="crispEdges"/><rect fill="#000000" x="353.8" y="99.1" width="305" height="24.65" shape-rendering="crispEdges"/><rect fill="#000000" x="658.8" y="99.1" width="24.4" height="24.65" shape-rendering="crispEdges"/><rect fill="#000000" x="683.2" y="99.1" width="12.2" height="24.65" shape-rendering="crispEdges"/><rect fill="#000000" x="695.4" y="99.1" width="85.4" height="24.65" shape-rendering="crispEdges"/><rect fill="#000000" x="780.8" y="99.1" width="195.2" height="24.65" shape-rendering="crispEdges"/><rect fill="#000000" x="0" y="123.5" width="109.8" height="24.65" shape-rendering="crispEdges"/><rect fill="#000000" x="109.8" y="123.5" width="73.2" height="24.65" shape-rendering="crispEdges"/><rect fill="#000000" x="183" y="123.5" width="12.2" height="24.65" shape-rendering="crispEdges"/><rect fill="#000000" x="195.2" y="123.5" width="585.6" height="24.65" shape-rendering="crispEdges"/><rect fill="#000000" x="780.8" y="123.5" width="12.2" height="24.65" shape-rendering="crispEdges"/><rect fill="#000000" x="793" y="123.5" width="122" height="24.65" shape-rendering="crispEdges"/><rect fill="#000000" x="915" y="123.5" width="61" height="24.65" shape-rendering="crispEdges"/><rect fill="#000000" x="0" y="147.9" width="183" height="24.65" shape-rendering="crispEdges"/><rect fill="#000000" x="183" y="147.9" width="12.2" height="24.65" shape-rendering="crispEdges"/><rect fill="#000000" x="195.2" y="147.9" width="585.6" height="24.65" shape-rendering="crispEdges"/><rect fill="#000000" x="780.8" y="147.9" width="12.2" height="24.65" shape-rendering="crispEdges"/><rect fill="#000000" x="793" y="147.9" width="183" height="24.65" shape-rendering="crispEdges"/><rect fill="#000000" x="0" y="172.3" width="183" height="24.65" shape-rendering="crispEdges"/><rect fill="#000000" x="183" y="172.3" width="12.2" height="24.65" shape-rendering="crispEdges"/><rect fill="#000000" x="195.2" y="172.3" width="24.4" height="24.65" shape-rendering="crispEdges"/><rect fill="#000000" x="219.6" y="172.3" width="158.6" height="24.65" shape-rendering="crispEdges"/><rect fill="#000000" x="378.2" y="172.3" width="207.4" height="24.65" shape-rendering="crispEdges"/><rect fill="#000000" x="585.6" y="172.3" width="170.8" height="24.65" shape-rendering="crispEdges"/><rect fill="#000000" x="756.4" y="172.3" width="24.4" height="24.65" shape-rendering="crispEdges"/><rect fill="#000000" x="780.8" y="172.3" width="12.2" height="24.65" shape-rendering="crispEdges"/><rect fill="#000000" x="793" y="172.3" width="183" height="24.65" shape-rendering="crispEdges"/><rect fill="#000000" x="0" y="196.7" width="183" height="24.65" shape-rendering="crispEdges"/><rect fill="#000000" x="183" y="196.7" width="12.2" height="24.65" shape-rendering="crispEdges"/><rect fill="#000000" x="195.2" y="196.7" width="24.4" height="24.65" shape-rendering="crispEdges"/><rect fill="#000000" x="219.6" y="196.7" width="536.8" height="24.65" shape-rendering="crispEdges"/><rect fill="#000000" x="756.4" y="196.7" width="24.4" height="24.65" shape-rendering="crispEdges"/><rect fill="#000000" x="780.8" y="196.7" width="12.2" height="24.65" shape-rendering="crispEdges"/><rect fill="#000000" x="793" y="196.7" width="183" height="24.65" shape-rendering="crispEdges"/><rect fill="#000000" x="0" y="221.1" width="183" height="24.65" shape-rendering="crispEdges"/><rect fill="#000000" x="183" y="221.1" width="12.2" height="24.65" shape-rendering="crispEdges"/><rect fill="#000000" x="195.2" y="221.1" width="24.4" height="24.65" shape-rendering="crispEdges"/><rect fill="#000000" x="219.6" y="221.1" width="85.4" height="24.65" shape-rendering="crispEdges"/><rect fill="#000000" x="305" y="221.1" width="366" height="24.65" shape-rendering="crispEdges"/><rect fill="#000000" x="671" y="221.1" width="85.4" height="24.65" shape-rendering="crispEdges"/><rect fill="#000000" x="756.4" y="221.1" width="24.4" height="24.65" shape-rendering="crispEdges"/><rect fill="#000000" x="780.8" y="221.1" width="12.2" height="24.65" shape-rendering="crispEdges"/><rect fill="#000000" x="793" y="221.1" width="183" height="24.65" shape-rendering="crispEdges"/><rect fill="#000000" x="0" y="245.5" width="183" height="24.65" shape-rendering="crispEdges"/><rect fill="#000000" x="183" y="245.5" width="12.2" height="24.65" shape-rendering="crispEdges"/><rect fill="#000000" x="195.2" y="245.5" width="24.4" height="24.65" shape-rendering="crispEdges"/><rect fill="#000000" x="219.6" y="245.5" width="24.4" height="24.65" shape-rendering="crispEdges"/><rect fill="#000000" x="244" y="245.5" width="475.8" height="24.65" shape-rendering="crispEdges"/><rect fill="#000000" x="719.8" y="245.5" width="36.6" height="24.65" shape-rendering="crispEdges"/><rect fill="#000000" x="756.4" y="245.5" width="24.4" height="24.65" shape-rendering="crispEdges"/><rect fill="#000000" x="780.8" y="245.5" width="12.2" height="24.65" shape-rendering="crispEdges"/><rect fill="#000000" x="793" y="245.5" width="183" height="24.65" shape-rendering="crispEdges"/><rect fill="#0f0f0f" x="0" y="269.9" width="12.2" height="24.65" shape-rendering="crispEdges"/><rect fill="#0f0f0f" x="12.2" y="269.9" width="12.2" height="24.65" shape-rendering="crispEdges"/><rect fill="#0f0f0f" x="24.4" y="269.9" width="12.2" height="24.65" shape-rendering="crispEdges"/><rect fill="#0f0f0f" x="36.6" y="269.9" width="12.2" height="24.65" shape-rendering="crispEdges"/><rect fill="#0f0f0f" x="48.8" y="269.9" width="12.2" height="24.65" shape-rendering="crispEdges"/><rect fill="#0f0f0f" x="61" y="269.9" width="12.2" height="24.65" shape-rendering="crispEdges"/><rect fill="#0f0f0f" x="73.2" y="269.9" width="12.2" height="24.65" shape-rendering="crispEdges"/><rect fill="#0f0f0f" x="85.4" y="269.9" width="12.2" height="24.65" shape-rendering="crispEdges"/><rect fill="#0f0f0f" x="97.6" y="269.9" width="12.2" height="24.65" shape-rendering="crispEdges"/><rect fill="#0f0f0f" x="109.8" y="269.9" width="12.2" height="24.65" shape-rendering="crispEdges"/><rect fill="#0f0f0f" x="122" y="269.9" width="12.2" height="24.65" shape-rendering="crispEdges"/><rect fill="#0f0f0f" x="134.2" y="269.9" width="12.2" height="24.65" shape-rendering="crispEdges"/><rect fill="#0f0f0f" x="146.4" y="269.9" width="12.2" height="24.65" shape-rendering="crispEdges"/><rect fill="#0f0f0f" x="158.6" y="269.9" width="12.2" height="24.65" shape-rendering="crispEdges"/><rect fill="#0f0f0f" x="170.8" y="269.9" width="12.2" height="24.65" shape-rendering="crispEdges"/><rect fill="#000000" x="183" y="269.9" width="12.2" height="24.65" shape-rendering="crispEdges"/><rect fill="#000000" x="195.2" y="269.9" width="24.4" height="24.65" shape-rendering="crispEdges"/><rect fill="#000000" x="219.6" y="269.9" width="536.8" height="24.65" shape-rendering="crispEdges"/><rect fill="#000000" x="756.4" y="269.9" width="24.4" height="24.65" shape-rendering="crispEdges"/><rect fill="#000000" x="780.8" y="269.9" width="12.2" height="24.65" shape-rendering="crispEdges"/><rect fill="#000000" x="793" y="269.9" width="183" height="24.65" shape-rendering="crispEdges"/><rect fill="#000000" x="0" y="294.3" width="12.2" height="24.65" shape-rendering="crispEdges"/><rect fill="#000000" x="12.2" y="294.3" width="170.8" height="24.65" shape-rendering="crispEdges"/><rect fill="#000000" x="183" y="294.3" width="12.2" height="24.65" shape-rendering="crispEdges"/><rect fill="#000000" x="195.2" y="294.3" width="24.4" height="24.65" shape-rendering="crispEdges"/><rect fill="#000000" x="219.6" y="294.3" width="536.8" height="24.65" shape-rendering="crispEdges"/><rect fill="#000000" x="756.4" y="294.3" width="24.4" height="24.65" shape-rendering="crispEdges"/><rect fill="#000000" x="780.8" y="294.3" width="12.2" height="24.65" shape-rendering="crispEdges"/><rect fill="#000000" x="793" y="294.3" width="170.8" height="24.65" shape-rendering="crispEdges"/><rect fill="#000000" x="963.8" y="294.3" width="12.2" height="24.65" shape-rendering="crispEdges"/><rect fill="#070707" x="0" y="318.7" width="12.2" height="24.65" shape-rendering="crispEdges"/><rect fill="#000000" x="12.2" y="318.7" width="12.2" height="24.65" shape-rendering="crispEdges"/><rect fill="#000a12" x="24.4" y="318.7" width="73.2" height="24.65" shape-rendering="crispEdges"/><rect fill="#000a12" x="97.6" y="318.7" width="85.4" height="24.65" shape-rendering="crispEdges"/><rect fill="#000000" x="183" y="318.7" width="12.2" height="24.65" shape-rendering="crispEdges"/><rect fill="#000000" x="195.2" y="318.7" width="24.4" height="24.65" shape-rendering="crispEdges"/><rect fill="#000000" x="219.6" y="318.7" width="36.6" height="24.65" shape-rendering="crispEdges"/><rect fill="#fdfdfd" x="256.2" y="318.7" width="12.2" height="24.65" shape-rendering="crispEdges"/><rect fill="#fdfdfd" x="268.4" y="318.7" width="183" height="24.65" shape-rendering="crispEdges"/><rect fill="#fdfdfd" x="451.4" y="318.7" width="24.4" height="24.65" shape-rendering="crispEdges"/><rect fill="#000000" x="475.8" y="318.7" width="12.2" height="24.65" shape-rendering="crispEdges"/><rect fill="#882222" x="488" y="318.7" width="24.4" height="24.65" shape-rendering="crispEdges"/><rect fill="#882222" x="512.4" y="318.7" width="158.6" height="24.65" shape-rendering="crispEdges"/><rect fill="#882222" x="671" y="318.7" width="36.6" height="24.65" shape-rendering="crispEdges"/><rect fill="#000000" x="707.6" y="318.7" width="48.8" height="24.65" shape-rendering="crispEdges"/><rect fill="#000000" x="756.4" y="318.7" width="24.4" height="24.65" shape-rendering="crispEdges"/><rect fill="#000000" x="780.8" y="318.7" width="12.2" height="24.65" shape-rendering="crispEdges"/><rect fill="#000a12" x="793" y="318.7" width="134.2" height="24.65" shape-rendering="crispEdges"/><rect fill="#000e19" x="927.2" y="318.7" width="24.4" height="24.65" shape-rendering="crispEdges"/><rect fill="#000000" x="951.6" y="318.7" width="12.2" height="24.65" shape-rendering="crispEdges"/><rect fill="#000000" x="963.8" y="318.7" width="12.2" height="24.65" shape-rendering="crispEdges"/><rect fill="#070707" x="0" y="343.1" width="12.2" height="24.65" shape-rendering="crispEdges"/><rect fill="#000000" x="12.2" y="343.1" width="12.2" height="24.65" shape-rendering="crispEdges"/><rect fill="#000000" x="24.4" y="343.1" width="73.2" height="24.65" shape-rendering="crispEdges"/><rect fill="#000000" x="97.6" y="343.1" width="85.4" height="24.65" shape-rendering="crispEdges"/><rect fill="#000000" x="183" y="343.1" width="12.2" height="24.65" shape-rendering="crispEdges"/><rect fill="#000000" x="195.2" y="343.1" width="24.4" height="24.65" shape-rendering="crispEdges"/><rect fill="#000000" x="219.6" y="343.1" width="536.8" height="24.65" shape-rendering="crispEdges"/><rect fill="#000000" x="756.4" y="343.1" width="24.4" height="24.65" shape-rendering="crispEdges"/><rect fill="#000000" x="780.8" y="343.1" width="12.2" height="24.65" shape-rendering="crispEdges"/><rect fill="#000000" x="793" y="343.1" width="134.2" height="24.65" shape-rendering="crispEdges"/><rect fill="#000e19" x="927.2" y="343.1" width="24.4" height="24.65" shape-rendering="crispEdges"/><rect fill="#000000" x="951.6" y="343.1" width="12.2" height="24.65" shape-rendering="crispEdges"/><rect fill="#000000" x="963.8" y="343.1" width="12.2" height="24.65" shape-rendering="crispEdges"/><rect fill="#070707" x="0" y="367.5" width="12.2" height="24.65" shape-rendering="crispEdges"/><rect fill="#000000" x="12.2" y="367.5" width="12.2" height="24.65" shape-rendering="crispEdges"/><rect fill="#000000" x="24.4" y="367.5" width="109.8" height="24.65" shape-rendering="crispEdges"/><rect fill="#000000" x="134.2" y="367.5" width="48.8" height="24.65" shape-rendering="crispEdges"/><rect fill="#000000" x="183" y="367.5" width="12.2" height="24.65" shape-rendering="crispEdges"/><rect fill="#000000" x="195.2" y="367.5" width="24.4" height="24.65" shape-rendering="crispEdges"/><rect fill="#000000" x="219.6" y="367.5" width="36.6" height="24.65" shape-rendering="crispEdges"/><rect fill="#000000" x="256.2" y="367.5" width="451.4" height="24.65" shape-rendering="crispEdges"/><rect fill="#000000" x="707.6" y="367.5" width="48.8" height="24.65" shape-rendering="crispEdges"/><rect fill="#000000" x="756.4" y="367.5" width="24.4" height="24.65" shape-rendering="crispEdges"/><rect fill="#000000" x="780.8" y="367.5" width="12.2" height="24.65" shape-rendering="crispEdges"/><rect fill="#000000" x="793" y="367.5" width="134.2" height="24.65" shape-rendering="crispEdges"/><rect fill="#000e19" x="927.2" y="367.5" width="24.4" height="24.65" shape-rendering="crispEdges"/><rect fill="#000000" x="951.6" y="367.5" width="12.2" height="24.65" shape-rendering="crispEdges"/><rect fill="#000000" x="963.8" y="367.5" width="12.2" height="24.65" shape-rendering="crispEdges"/><rect fill="#070707" x="0" y="391.9" width="12.2" height="24.65" shape-rendering="crispEdges"/><rect fill="#000000" x="12.2" y="391.9" width="12.2" height="24.65" shape-rendering="crispEdges"/><rect fill="#000000" x="24.4" y="391.9" width="122" height="24.65" shape-rendering="crispEdges"/><rect fill="#000000" x="146.4" y="391.9" width="36.6" height="24.65" shape-rendering="crispEdges"/><rect fill="#000000" x="183" y="391.9" width="12.2" height="24.65" shape-rendering="crispEdges"/><rect fill="#000000" x="195.2" y="391.9" width="585.6" height="24.65" shape-rendering="crispEdges"/><rect fill="#000000" x="780.8" y="391.9" width="12.2" height="24.65" shape-rendering="crispEdges"/><rect fill="#000000" x="793" y="391.9" width="134.2" height="24.65" shape-rendering="crispEdges"/><rect fill="#000e19" x="927.2" y="391.9" width="24.4" height="24.65" shape-rendering="crispEdges"/><rect fill="#000000" x="951.6" y="391.9" width="12.2" height="24.65" shape-rendering="crispEdges"/><rect fill="#000000" x="963.8" y="391.9" width="12.2" height="24.65" shape-rendering="crispEdges"/><rect fill="#070707" x="0" y="416.3" width="12.2" height="24.65" shape-rendering="crispEdges"/><rect fill="#000000" x="12.2" y="416.3" width="12.2" height="24.65" shape-rendering="crispEdges"/><rect fill="#000000" x="24.4" y="416.3" width="73.2" height="24.65" shape-rendering="crispEdges"/><rect fill="#000000" x="97.6" y="416.3" width="85.4" height="24.65" shape-rendering="crispEdges"/><rect fill="#000000" x="183" y="416.3" width="12.2" height="24.65" shape-rendering="crispEdges"/><rect fill="#000000" x="195.2" y="416.3" width="585.6" height="24.65" shape-rendering="crispEdges"/><rect fill="#000000" x="780.8" y="416.3" width="12.2" height="24.65" shape-rendering="crispEdges"/><rect fill="#000000" x="793" y="416.3" width="134.2" height="24.65" shape-rendering="crispEdges"/><rect fill="#000e19" x="927.2" y="416.3" width="24.4" height="24.65" shape-rendering="crispEdges"/><rect fill="#000000" x="951.6" y="416.3" width="12.2" height="24.65" shape-rendering="crispEdges"/><rect fill="#000000" x="963.8" y="416.3" width="12.2" height="24.65" shape-rendering="crispEdges"/><rect fill="#070707" x="0" y="440.7" width="12.2" height="24.65" shape-rendering="crispEdges"/><rect fill="#000000" x="12.2" y="440.7" width="12.2" height="24.65" shape-rendering="crispEdges"/><rect fill="#000000" x="24.4" y="440.7" width="73.2" height="24.65" shape-rendering="crispEdges"/><rect fill="#000000" x="97.6" y="440.7" width="829.6" height="24.65" shape-rendering="crispEdges"/><rect fill="#000e19" x="927.2" y="440.7" width="24.4" height="24.65" shape-rendering="crispEdges"/><rect fill="#000000" x="951.6" y="440.7" width="12.2" height="24.65" shape-rendering="crispEdges"/><rect fill="#000000" x="963.8" y="440.7" width="12.2" height="24.65" shape-rendering="crispEdges"/><rect fill="#070707" x="0" y="465.1" width="12.2" height="24.65" shape-rendering="crispEdges"/><rect fill="#000000" x="12.2" y="465.1" width="12.2" height="24.65" shape-rendering="crispEdges"/><rect fill="#000000" x="24.4" y="465.1" width="146.4" height="24.65" shape-rendering="crispEdges"/><rect fill="#000000" x="170.8" y="465.1" width="756.4" height="24.65" shape-rendering="crispEdges"/><rect fill="#000e19" x="927.2" y="465.1" width="24.4" height="24.65" shape-rendering="crispEdges"/><rect fill="#000000" x="951.6" y="465.1" width="12.2" height="24.65" shape-rendering="crispEdges"/><rect fill="#000000" x="963.8" y="465.1" width="12.2" height="24.65" shape-rendering="crispEdges"/><rect fill="#070707" x="0" y="489.5" width="12.2" height="24.65" shape-rendering="crispEdges"/><rect fill="#000000" x="12.2" y="489.5" width="12.2" height="24.65" shape-rendering="crispEdges"/><rect fill="#000000" x="24.4" y="489.5" width="85.4" height="24.65" shape-rendering="crispEdges"/><rect fill="#000000" x="109.8" y="489.5" width="817.4" height="24.65" shape-rendering="crispEdges"/><rect fill="#000e19" x="927.2" y="489.5" width="24.4" height="24.65" shape-rendering="crispEdges"/><rect fill="#000000" x="951.6" y="489.5" width="12.2" height="24.65" shape-rendering="crispEdges"/><rect fill="#000000" x="963.8" y="489.5" width="12.2" height="24.65" shape-rendering="crispEdges"/><rect fill="#000000" x="0" y="513.9" width="927.2" height="24.65" shape-rendering="crispEdges"/><rect fill="#000000" x="927.2" y="513.9" width="24.4" height="24.65" shape-rendering="crispEdges"/><rect fill="#000000" x="951.6" y="513.9" width="24.4" height="24.65" shape-rendering="crispEdges"/><rect fill="#030303" x="0" y="538.3" width="24.4" height="24.65" shape-rendering="crispEdges"/><rect fill="#030303" x="24.4" y="538.3" width="12.2" height="24.65" shape-rendering="crispEdges"/><rect fill="#434343" x="36.6" y="538.3" width="12.2" height="24.65" shape-rendering="crispEdges"/><rect fill="#030303" x="48.8" y="538.3" width="780.8" height="24.65" shape-rendering="crispEdges"/><rect fill="#030303" x="829.6" y="538.3" width="24.4" height="24.65" shape-rendering="crispEdges"/><rect fill="#000000" x="854" y="538.3" width="73.2" height="24.65" shape-rendering="crispEdges"/><rect fill="#000000" x="927.2" y="538.3" width="24.4" height="24.65" shape-rendering="crispEdges"/><rect fill="#000000" x="951.6" y="538.3" width="24.4" height="24.65" shape-rendering="crispEdges"/><rect fill="#030303" x="0" y="562.7" width="24.4" height="24.65" shape-rendering="crispEdges"/><rect fill="#030303" x="24.4" y="562.7" width="805.2" height="24.65" shape-rendering="crispEdges"/><rect fill="#030303" x="829.6" y="562.7" width="24.4" height="24.65" shape-rendering="crispEdges"/><rect fill="#000000" x="854" y="562.7" width="24.4" height="24.65" shape-rendering="crispEdges"/><rect fill="#000000" x="878.4" y="562.7" width="73.2" height="24.65" shape-rendering="crispEdges"/><rect fill="#000000" x="951.6" y="562.7" width="24.4" height="24.65" shape-rendering="crispEdges"/>
    <g class="terminal-922950137-matrix">
    <text class="terminal-922950137-r2" x="976" y="20" textLength="12.2" clip-path="url(#terminal-922950137-line-0)">
</text><text class="terminal-922950137-r2" x="976" y="44.4" textLength="12.2" clip-path="url(#terminal-922950137-line-1)">
</text><text class="terminal-922950137-r3" x="0" y="68.8" textLength="976" clip-path="url(#terminal-922950137-line-2)">────────────────────────────────────────────────────────────────────────────────</text><text class="terminal-922950137-r2" x="976" y="68.8" textLength="12.2" clip-path="url(#terminal-922950137-line-2)">
</text><text class="terminal-922950137-r5" x="158.6" y="93.2" textLength="109.8" clip-path="url(#terminal-922950137-line-3)">&#160;&#160;15:47&#160;&#160;</text><text class="terminal-922950137-r6" x="268.4" y="93.2" textLength="390.4" clip-path="url(#terminal-922950137-line-3)">Room&#160;created.&#160;Share&#160;your&#160;Chat&#160;ID</text><text class="terminal-922950137-r3" x="683.2" y="93.2" textLength="12.2" clip-path="url(#terminal-922950137-line-3)">│</text><text class="terminal-922950137-r2" x="976" y="93.2" textLength="12.2" clip-path="url(#terminal-922950137-line-3)">
</text><text class="terminal-922950137-r5" x="244" y="117.6" textLength="109.8" clip-path="url(#terminal-922950137-line-4)">&#160;&#160;15:47&#160;&#160;</text><text class="terminal-922950137-r7" x="353.8" y="117.6" textLength="305" clip-path="url(#terminal-922950137-line-4)">Waiting&#160;for&#160;peers&#160;to&#160;join</text><text class="terminal-922950137-r3" x="683.2" y="117.6" textLength="12.2" clip-path="url(#terminal-922950137-line-4)">│</text><text class="terminal-922950137-r8" x="695.4" y="117.6" textLength="85.4" clip-path="url(#terminal-922950137-line-4)">&#160;&#160;Peers</text><text class="terminal-922950137-r2" x="976" y="117.6" textLength="12.2" clip-path="url(#terminal-922950137-line-4)">
</text><text class="terminal-922950137-r5" x="0" y="142" textLength="109.8" clip-path="url(#terminal-922950137-line-5)">&#160;&#160;15:47&#160;&#160;</text><text class="terminal-922950137-r9" x="109.8" y="142" textLength="73.2" clip-path="url(#terminal-922950137-line-5)">ALICE&#160;</text><text class="terminal-922950137-r10" x="183" y="142" textLength="12.2" clip-path="url(#terminal-922950137-line-5)">╭</text><text class="terminal-922950137-r10" x="195.2" y="142" textLength="585.6" clip-path="url(#terminal-922950137-line-5)">────────────────────────────────────────────────</text><text class="terminal-922950137-r10" x="780.8" y="142" textLength="12.2" clip-path="url(#terminal-922950137-line-5)">╮</text><text class="terminal-922950137-r8" x="793" y="142" textLength="122" clip-path="url(#terminal-922950137-line-5)">──────────</text><text class="terminal-922950137-r2" x="976" y="142" textLength="12.2" clip-path="url(#terminal-922950137-line-5)">
</text><text class="terminal-922950137-r10" x="183" y="166.4" textLength="12.2" clip-path="url(#terminal-922950137-line-6)">│</text><text class="terminal-922950137-r10" x="780.8" y="166.4" textLength="12.2" clip-path="url(#terminal-922950137-line-6)">│</text><text class="terminal-922950137-r2" x="976" y="166.4" textLength="12.2" clip-path="url(#terminal-922950137-line-6)">
</text><text class="terminal-922950137-r10" x="183" y="190.8" textLength="12.2" clip-path="url(#terminal-922950137-line-7)">│</text><text class="terminal-922950137-r11" x="378.2" y="190.8" textLength="207.4" clip-path="url(#terminal-922950137-line-7)">Quit&#160;OpenChatTUI?</text><text class="terminal-922950137-r10" x="780.8" y="190.8" textLength="12.2" clip-path="url(#terminal-922950137-line-7)">│</text><text class="terminal-922950137-r2" x="976" y="190.8" textLength="12.2" clip-path="url(#terminal-922950137-line-7)">
</text><text class="terminal-922950137-r10" x="183" y="215.2" textLength="12.2" clip-path="url(#terminal-922950137-line-8)">│</text><text class="terminal-922950137-r10" x="780.8" y="215.2" textLength="12.2" clip-path="url(#terminal-922950137-line-8)">│</text><text class="terminal-922950137-r2" x="976" y="215.2" textLength="12.2" clip-path="url(#terminal-922950137-line-8)">
</text><text class="terminal-922950137-r10" x="183" y="239.6" textLength="12.2" clip-path="url(#terminal-922950137-line-9)">│</text><text class="terminal-922950137-r12" x="305" y="239.6" textLength="366" clip-path="url(#terminal-922950137-line-9)">Are&#160;you&#160;sure&#160;you&#160;want&#160;to&#160;exit?</text><text class="terminal-922950137-r10" x="780.8" y="239.6" textLength="12.2" clip-path="url(#terminal-922950137-line-9)">│</text><text class="terminal-922950137-r2" x="976" y="239.6" textLength="12.2" clip-path="url(#terminal-922950137-line-9)">
</text><text class="terminal-922950137-r10" x="183" y="264" textLength="12.2" clip-path="url(#terminal-922950137-line-10)">│</text><text class="terminal-922950137-r12" x="244" y="264" textLength="475.8" clip-path="url(#terminal-922950137-line-10)">This&#160;will&#160;trigger&#160;a&#160;secure&#160;memory&#160;wipe.</text><text class="terminal-922950137-r10" x="780.8" y="264" textLength="12.2" clip-path="url(#terminal-922950137-line-10)">│</text><text class="terminal-922950137-r2" x="976" y="264" textLength="12.2" clip-path="url(#terminal-922950137-line-10)">
</text><text class="terminal-922950137-r10" x="183" y="288.4" textLength="12.2" clip-path="url(#terminal-922950137-line-11)">│</text><text class="terminal-922950137-r10" x="780.8" y="288.4" textLength="12.2" clip-path="url(#terminal-922950137-line-11)">│</text><text class="terminal-922950137-r2" x="976" y="288.4" textLength="12.2" clip-path="url(#terminal-922950137-line-11)">
</text><text class="terminal-922950137-r3" x="0" y="312.8" textLength="12.2" clip-path="url(#terminal-922950137-line-12)">┌</text><text class="terminal-922950137-r3" x="12.2" y="312.8" textLength="170.8" clip-path="url(#terminal-922950137-line-12)">──────────────</text><text class="terminal-922950137-r10" x="183" y="312.8" textLength="12.2" clip-path="url(#terminal-922950137-line-12)">│</text><text class="terminal-922950137-r10" x="780.8" y="312.8" textLength="12.2" clip-path="url(#terminal-922950137-line-12)">│</text><text class="terminal-922950137-r3" x="793" y="312.8" textLength="170.8" clip-path="url(#terminal-922950137-line-12)">──────────────</text><text class="terminal-922950137-r3" x="963.8" y="312.8" textLength="12.2" clip-path="url(#terminal-922950137-line-12)">┐</text><text class="terminal-922950137-r2" x="976" y="312.8" textLength="12.2" clip-path="url(#terminal-922950137-line-12)">
</text><text class="terminal-922950137-r13" x="0" y="337.2" textLength="12.2" clip-path="url(#terminal-922950137-line-13)">▊</text><text class="terminal-922950137-r4" x="24.4" y="337.2" textLength="73.2" clip-path="url(#terminal-922950137-line-13)">/lobby</text><text class="terminal-922950137-r10" x="183" y="337.2" textLength="12.2" clip-path="url(#terminal-922950137-line-13)">│</text><text class="terminal-922950137-r14" x="268.4" y="337.2" textLength="183" clip-path="url(#terminal-922950137-line-13)">&#160;Continue&#160;Chat&#160;</text><text class="terminal-922950137-r11" x="512.4" y="337.2" textLength="158.6" clip-path="url(#terminal-922950137-line-13)">&#160;Secure&#160;Quit&#160;</text><text class="terminal-922950137-r10" x="780.8" y="337.2" textLength="12.2" clip-path="url(#terminal-922950137-line-13)">│</text><text class="terminal-922950137-r15" x="963.8" y="337.2" textLength="12.2" clip-path="url(#terminal-922950137-line-13)">▎</text><text class="terminal-922950137-r2" x="976" y="337.2" textLength="12.2" clip-path="url(#terminal-922950137-line-13)">
</text><text class="terminal-922950137-r13" x="0" y="361.6" textLength="12.2" clip-path="url(#terminal-922950137-line-14)">▊</text><text class="terminal-922950137-r8" x="24.4" y="361.6" textLength="73.2" clip-path="url(#terminal-922950137-line-14)">/login</text><text class="terminal-922950137-r10" x="183" y="361.6" textLength="12.2" clip-path="url(#terminal-922950137-line-14)">│</text><text class="terminal-922950137-r10" x="780.8" y="361.6" textLength="12.2" clip-path="url(#terminal-922950137-line-14)">│</text><text class="terminal-922950137-r15" x="963.8" y="361.6" textLength="12.2" clip-path="url(#terminal-922950137-line-14)">▎</text><text class="terminal-922950137-r2" x="976" y="361.6" textLength="12.2" clip-path="url(#terminal-922950137-line-14)">
</text><text class="terminal-922950137-r13" x="0" y="386" textLength="12.2" clip-path="url(#terminal-922950137-line-15)">▊</text><text class="terminal-922950137-r8" x="24.4" y="386" textLength="109.8" clip-path="url(#terminal-922950137-line-15)">/save&#160;txt</text><text class="terminal-922950137-r10" x="183" y="386" textLength="12.2" clip-path="url(#terminal-922950137-line-15)">│</text><text class="terminal-922950137-r12" x="256.2" y="386" textLength="451.4" clip-path="url(#terminal-922950137-line-15)">ESC:&#160;Continue&#160;&#160;·&#160;&#160;Ctrl+Q:&#160;Secure&#160;Quit</text><text class="terminal-922950137-r10" x="780.8" y="386" textLength="12.2" clip-path="url(#terminal-922950137-line-15)">│</text><text class="terminal-922950137-r15" x="963.8" y="386" textLength="12.2" clip-path="url(#terminal-922950137-line-15)">▎</text><text class="terminal-922950137-r2" x="976" y="386" textLength="12.2" clip-path="url(#terminal-922950137-line-15)">
</text><text class="terminal-922950137-r13" x="0" y="410.4" textLength="12.2" clip-path="url(#terminal-922950137-line-16)">▊</text><text class="terminal-922950137-r8" x="24.4" y="410.4" textLength="122" clip-path="url(#terminal-922950137-line-16)">/save&#160;html</text><text class="terminal-922950137-r10" x="183" y="410.4" textLength="12.2" clip-path="url(#terminal-922950137-line-16)">│</text><text class="terminal-922950137-r10" x="780.8" y="410.4" textLength="12.2" clip-path="url(#terminal-922950137-line-16)">│</text><text class="terminal-922950137-r15" x="963.8" y="410.4" textLength="12.2" clip-path="url(#terminal-922950137-line-16)">▎</text><text class="terminal-922950137-r2" x="976" y="410.4" textLength="12.2" clip-path="url(#terminal-922950137-line-16)">
</text><text class="terminal-922950137-r13" x="0" y="434.8" textLength="12.2" clip-path="url(#terminal-922950137-line-17)">▊</text><text class="terminal-922950137-r8" x="24.4" y="434.8" textLength="73.2" clip-path="url(#terminal-922950137-line-17)">/clear</text><text class="terminal-922950137-r10" x="183" y="434.8" textLength="12.2" clip-path="url(#terminal-922950137-line-17)">╰</text><text class="terminal-922950137-r10" x="195.2" y="434.8" textLength="585.6" clip-path="url(#terminal-922950137-line-17)">────────────────────────────────────────────────</text><text class="terminal-922950137-r10" x="780.8" y="434.8" textLength="12.2" clip-path="url(#terminal-922950137-line-17)">╯</text><text class="terminal-922950137-r15" x="963.8" y="434.8" textLength="12.2" clip-path="url(#terminal-922950137-line-17)">▎</text><text class="terminal-922950137-r2" x="976" y="434.8" textLength="12.2" clip-path="url(#terminal-922950137-line-17)">
</text><text class="terminal-922950137-r13" x="0" y="459.2" textLength="12.2" clip-path="url(#terminal-922950137-line-18)">▊</text><text class="terminal-922950137-r8" x="24.4" y="459.2" textLength="73.2" clip-path="url(#terminal-922950137-line-18)">/peers</text><text class="terminal-922950137-r15" x="963.8" y="459.2" textLength="12.2" clip-path="url(#terminal-922950137-line-18)">▎</text><text class="terminal-922950137-r2" x="976" y="459.2" textLength="12.2" clip-path="url(#terminal-922950137-line-18)">
</text><text class="terminal-922950137-r13" x="0" y="483.6" textLength="12.2" clip-path="url(#terminal-922950137-line-19)">▊</text><text class="terminal-922950137-r8" x="24.4" y="483.6" textLength="146.4" clip-path="url(#terminal-922950137-line-19)">/fingerprint</text><text class="terminal-922950137-r15" x="963.8" y="483.6" textLength="12.2" clip-path="url(#terminal-922950137-line-19)">▎</text><text class="terminal-922950137-r2" x="976" y="483.6" textLength="12.2" clip-path="url(#terminal-922950137-line-19)">
</text><text class="terminal-922950137-r13" x="0" y="508" textLength="12.2" clip-path="url(#terminal-922950137-line-20)">▊</text><text class="terminal-922950137-r8" x="24.4" y="508" textLength="85.4" clip-path="url(#terminal-922950137-line-20)">/verify</text><text class="terminal-922950137-r15" x="963.8" y="508" textLength="12.2" clip-path="url(#terminal-922950137-line-20)">▎</text><text class="terminal-922950137-r2" x="976" y="508" textLength="12.2" clip-path="url(#terminal-922950137-line-20)">
</text><text class="terminal-922950137-r3" x="0" y="532.4" textLength="927.2" clip-path="url(#terminal-922950137-line-21)">────────────────────────────────────────────────────────────────────────────</text><text class="terminal-922950137-r3" x="927.2" y="532.4" textLength="24.4" clip-path="url(#terminal-922950137-line-21)">──</text><text class="terminal-922950137-r3" x="951.6" y="532.4" textLength="24.4" clip-path="url(#terminal-922950137-line-21)">──</text><text class="terminal-922950137-r2" x="976" y="532.4" textLength="12.2" clip-path="url(#terminal-922950137-line-21)">
</text><text class="terminal-922950137-r8" x="24.4" y="556.8" textLength="12.2" clip-path="url(#terminal-922950137-line-22)">/</text><text class="terminal-922950137-r2" x="976" y="556.8" textLength="12.2" clip-path="url(#terminal-922950137-line-22)">
</text><text class="terminal-922950137-r17" x="878.4" y="581.2" textLength="73.2" clip-path="url(#terminal-922950137-line-23)">&#160;&#160;E2EE</text>
    </g>
    </g>
</svg>
