<svg class="rich-terminal" viewBox="0 0 1482 904.0" xmlns="http://www.w3.org/2000/svg">
    <!-- Generated with Rich https://www.textualize.io -->
    <style>

    @font-face {
        font-family: "Fira Code";
        src: local("FiraCode-Regular"),
                url("https://cdnjs.cloudflare.com/ajax/libs/firacode/6.2.0/woff2/FiraCode-Regular.woff2") format("woff2"),
                url("https://cdnjs.cloudflare.com/ajax/libs/firacode/6.2.0/woff/FiraCode-Regular.woff") format("woff");
        font-style: normal;
        font-weight: 400;
    }
    @font-face {
        font-family: "Fira Code";
        src: local("FiraCode-Bold"),
                url("https://cdnjs.cloudflare.com/ajax/libs/firacode/6.2.0/woff2/FiraCode-Bold.woff2") format("woff2"),
                url("https://cdnjs.cloudflare.com/ajax/libs/firacode/6.2.0/woff/FiraCode-Bold.woff") format("woff");
        font-style: bold;
        font-weight: 700;
    }

    .terminal-2921969502-matrix {
        font-family: Fira Code, monospace;
        font-size: 20px;
        line-height: 24.4px;
        font-variant-east-asian: full-width;
    }

    .terminal-2921969502-title {
        font-size: 18px;
        font-weight: bold;
        font-family: arial;
    }

    .terminal-2921969502-r1 { fill: #c5c8c6 }
.terminal-2921969502-r2 { fill: #333333 }
.terminal-2921969502-r3 { fill: #e0e0e0 }
.terminal-2921969502-r4 { fill: #939393 }
.terminal-2921969502-r5 { fill: #34c759 }
.terminal-2921969502-r6 { fill: #888888 }
.terminal-2921969502-r7 { fill: #ffffff }
.terminal-2921969502-r8 { fill: #00ffc4;font-weight: bold }
.terminal-2921969502-r9 { fill: #000000 }
.terminal-2921969502-r10 { fill: #191919 }
.terminal-2921969502-r11 { fill: #121212 }
.terminal-2921969502-r12 { fill: #ffffff;font-weight: bold }
    </style>

    <defs>
    <clipPath id="terminal-2921969502-clip-terminal">
      <rect x="0" y="0" width="1463.0" height="853.0" />
    </clipPath>
    <clipPath id="terminal-2921969502-line-0">
    <rect x="0" y="1.5" width="1464" height="24.65"/>
            </clipPath>
<clipPath id="terminal-2921969502-line-1">
    <rect x="0" y="25.9" width="1464" height="24.65"/>
            </clipPath>
<clipPath id="terminal-2921969502-line-2">
    <rect x="0" y="50.3" width="1464" height="24.65"/>
            </clipPath>
<clipPath id="terminal-2921969502-line-3">
    <rect x="0" y="74.7" width="1464" height="24.65"/>
            </clipPath>
<clipPath id="terminal-2921969502-line-4">
    <rect x="0" y="99.1" width="1464" height="24.65"/>
            </clipPath>
<clipPath id="terminal-2921969502-line-5">
    <rect x="0" y="123.5" width="1464" height="24.65"/>
            </clipPath>
<clipPath id="terminal-2921969502-line-6">
    <rect x="0" y="147.9" width="1464" height="24.65"/>
            </clipPath>
<clipPath id="terminal-2921969502-line-7">
    <rect x="0" y="172.3" width="1464" height="24.65"/>
            </clipPath>
<clipPath id="terminal-2921969502-line-8">
    <rect x="0" y="196.7" width="1464" height="24.65"/>
            </clipPath>
<clipPath id="terminal-2921969502-line-9">
    <rect x="0" y="221.1" width="1464" height="24.65"/>
            </clipPath>
<clipPath id="terminal-2921969502-line-10">
    <rect x="0" y="245.5" width="1464" height="24.65"/>
            </clipPath>
<clipPath id="terminal-2921969502-line-11">
    <rect x="0" y="269.9" width="1464" height="24.65"/>
            </clipPath>
<clipPath id="terminal-2921969502-line-12">
    <rect x="0" y="294.3" width="1464" height="24.65"/>
            </clipPath>
<clipPath id="terminal-2921969502-line-13">
    <rect x="0" y="318.7" width="1464" height="24.65"/>
            </clipPath>
<clipPath id="terminal-2921969502-line-14">
    <rect x="0" y="343.1" width="1464" height="24.65"/>
            </clipPath>
<clipPath id="terminal-2921969502-line-15">
    <rect x="0" y="367.5" width="1464" height="24.65"/>
            </clipPath>
<clipPath id="terminal-2921969502-line-16">
    <rect x="0" y="391.9" width="1464" height="24.65"/>
            </clipPath>
<clipPath id="terminal-2921969502-line-17">
    <rect x="0" y="416.3" width="1464" height="24.65"/>
            </clipPath>
<clipPath id="terminal-2921969502-line-18">
    <rect x="0" y="440.7" width="1464" height="24.65"/>
            </clipPath>
<clipPath id="terminal-2921969502-line-19">
    <rect x="0" y="465.1" width="1464" height="24.65"/>
            </clipPath>
<clipPath id="terminal-2921969502-line-20">
    <rect x="0" y="489.5" width="1464" height="24.65"/>
            </clipPath>
<clipPath id="terminal-2921969502-line-21">
    <rect x="0" y="513.9" width="1464" height="24.65"/>
            </clipPath>
<clipPath id="terminal-2921969502-line-22">
    <rect x="0" y="538.3" width="1464" height="24.65"/>
            </clipPath>
<clipPath id="terminal-2921969502-line-23">
    <rect x="0" y="562.7" width="1464" height="24.65"/>
            </clipPath>
<clipPath id="terminal-2921969502-line-24">
    <rect x="0" y="587.1" width="1464" height="24.65"/>
            </clipPath>
<clipPath id="terminal-2921969502-line-25">
    <rect x="0" y="611.5" width="1464" height="24.65"/>
            </clipPath>
<clipPath id="terminal-2921969502-line-26">
    <rect x="0" y="635.9" width="1464" height="24.65"/>
            </clipPath>
<clipPath id="terminal-2921969502-line-27">
    <rect x="0" y="660.3" width="1464" height="24.65"/>
            </clipPath>
<clipPath id="terminal-2921969502-line-28">
    <rect x="0" y="684.7" width="1464" height="24.65"/>
            </clipPath>
<clipPath id="terminal-2921969502-line-29">
    <rect x="0" y="709.1" width="1464" height="24.65"/>
            </clipPath>
<clipPath id="terminal-2921969502-line-30">
    <rect x="0" y="733.5" width="1464" height="24.65"/>
            </clipPath>
<clipPath id="terminal-2921969502-line-31">
    <rect x="0" y="757.9" width="1464" height="24.65"/>
            </clipPath>
<clipPath id="terminal-2921969502-line-32">
    <rect x="0" y="782.3" width="1464" height="24.65"/>
            </clipPath>
<clipPath id="terminal-2921969502-line-33">
    <rect x="0" y="806.7" width="1464" height="24.65"/>
            </clipPath>
    </defs>

    <rect fill="#292929" stroke="rgba(255,255,255,0.35)" stroke-width="1" x="1" y="1" width="1480" height="902" rx="8"/><text class="terminal-2921969502-title" fill="#c5c8c6" text-anchor="middle" x="740" y="27">OpenChatTUI</text>
            <g transform="translate(26,22)">
            <circle cx="0" cy="0" r="7" fill="#ff5f57"/>
            <circle cx="22" cy="0" r="7" fill="#febc2e"/>
            <circle cx="44" cy="0" r="7" fill="#28c840"/>
            </g>
        
    <g transform="translate(9, 41)" clip-path="url(#terminal-2921969502-clip-terminal)">
    <rect fill="#000000" x="0" y="1.5" width="1464" height="24.65" shape-rendering="crispEdges"/><rect fill="#000000" x="0" y="25.9" width="1464" height="24.65" shape-rendering="crispEdges"/><rect fill="#000000" x="0" y="50.3" width="1464" height="24.65" shape-rendering="crispEdges"/><rect fill="#000000" x="0" y="74.7" width="158.6" height="24.65" shape-rendering="crispEdges"/><rect fill="#000000" x="158.6" y="74.7" width="109.8" height="24.65" shape-rendering="crispEdges"/><rect fill="#000000" x="268.4" y="74.7" width="512.4" height="24.65" shape-rendering="crispEdges"/><rect fill="#000000" x="780.8" y="74.7" width="170.8" height="24.65" shape-rendering="crispEdges"/><rect fill="#000000" x="951.6" y="74.7" width="195.2" height="24.65" shape-rendering="crispEdges"/><rect fill="#000000" x="1146.8" y="74.7" width="24.4" height="24.65" shape-rendering="crispEdges"/><rect fill="#000000" x="1171.2" y="74.7" width="12.2" height="24.65" shape-rendering="crispEdges"/><rect fill="#000000" x="1183.4" y="74.7" width="280.6" height="24.65" shape-rendering="crispEdges"/><rect fill="#000000" x="0" y="99.1" width="244" height="24.65" shape-rendering="crispEdges"/><rect fill="#000000" x="244" y="99.1" width="109.8" height="24.65" shape-rendering="crispEdges"/><rect fill="#000000" x="353.8" y="99.1" width="341.6" height="24.65" shape-rendering="crispEdges"/><rect fill="#000000" x="695.4" y="99.1" width="256.2" height="24.65" shape-rendering="crispEdges"/><rect fill="#000000" x="951.6" y="99.1" width="195.2" height="24.65" shape-rendering="crispEdges"/><rect fill="#000000" x="1146.8" y="99.1" width="24.4" height="24.65" shape-rendering="crispEdges"/><rect fill="#000000" x="1171.2" y="99.1" width="12.2" height="24.65" shape-rendering="crispEdges"/><rect fill="#000000" x="1183.4" y="99.1" width="85.4" height="24.65" shape-rendering="crispEdges"/><rect fill="#000000" x="1268.8" y="99.1" width="195.2" height="24.65" shape-rendering="crispEdges"/><rect fill="#000000" x="0" y="123.5" width="109.8" height="24.65" shape-rendering="crispEdges"/><rect fill="#000000" x="109.8" y="123.5" width="85.4" height="24.65" shape-rendering="crispEdges"/><rect fill="#000000" x="195.2" y="123.5" width="427" height="24.65" shape-rendering="crispEdges"/><rect fill="#000000" x="622.2" y="123.5" width="524.6" height="24.65" shape-rendering="crispEdges"/><rect fill="#000000" x="1146.8" y="123.5" width="24.4" height="24.65" shape-rendering="crispEdges"/><rect fill="#000000" x="1171.2" y="123.5" width="12.2" height="24.65" shape-rendering="crispEdges"/><rect fill="#000000" x="1183.4" y="123.5" width="219.6" height="24.65" shape-rendering="crispEdges"/><rect fill="#000000" x="1403" y="123.5" width="61" height="24.65" shape-rendering="crispEdges"/><rect fill="#000000" x="0" y="147.9" width="1146.8" height="24.65" shape-rendering="crispEdges"/><rect fill="#000000" x="1146.8" y="147.9" width="24.4" height="24.65" shape-rendering="crispEdges"/><rect fill="#000000" x="1171.2" y="147.9" width="12.2" height="24.65" shape-rendering="crispEdges"/><rect fill="#000000" x="1183.4" y="147.9" width="280.6" height="24.65" shape-rendering="crispEdges"/><rect fill="#000000" x="0" y="172.3" width="1146.8" height="24.65" shape-rendering="crispEdges"/><rect fill="#000000" x="1146.8" y="172.3" width="24.4" height="24.65" shape-rendering="crispEdges"/><rect fill="#000000" x="1171.2" y="172.3" width="292.8" height="24.65" shape-rendering="crispEdges"/><rect fill="#000000" x="0" y="196.7" width="1146.8" height="24.65" shape-rendering="crispEdges"/><rect fill="#000000" x="1146.8" y="196.7" width="24.4" height="24.65" shape-rendering="crispEdges"/><rect fill="#000000" x="1171.2" y="196.7" width="292.8" height="24.65" shape-rendering="crispEdges"/><rect fill="#000000" x="0" y="221.1" width="1146.8" height="24.65" shape-rendering="crispEdges"/><rect fill="#000000" x="1146.8" y="221.1" width="24.4" height="24.65" shape-rendering="crispEdges"/><rect fill="#000000" x="1171.2" y="221.1" width="292.8" height="24.65" shape-rendering="crispEdges"/><rect fill="#000000" x="0" y="245.5" width="1146.8" height="24.65" shape-rendering="crispEdges"/><rect fill="#000000" x="1146.8" y="245.5" width="24.4" height="24.65" shape-rendering="crispEdges"/><rect fill="#000000" x="1171.2" y="245.5" width="292.8" height="24.65" shape-rendering="crispEdges"/><rect fill="#000000" x="0" y="269.9" width="1146.8" height="24.65" shape-rendering="crispEdges"/><rect fill="#000000" x="1146.8" y="269.9" width="24.4" height="24.65" shape-rendering="crispEdges"/><rect fill="#000000" x="1171.2" y="269.9" width="292.8" height="24.65" shape-rendering="crispEdges"/><rect fill="#000000" x="0" y="294.3" width="1146.8" height="24.65" shape-rendering="crispEdges"/><rect fill="#000000" x="1146.8" y="294.3" width="24.4" height="24.65" shape-rendering="crispEdges"/><rect fill="#000000" x="1171.2" y="294.3" width="292.8" height="24.65" shape-rendering="crispEdges"/><rect fill="#000000" x="0" y="318.7" width="1146.8" height="24.65" shape-rendering="crispEdges"/><rect fill="#000000" x="1146.8" y="318.7" width="24.4" height="24.65" shape-rendering="crispEdges"/><rect fill="#000000" x="1171.2" y="318.7" width="292.8" height="24.65" shape-rendering="crispEdges"/><rect fill="#000000" x="0" y="343.1" width="1146.8" height="24.65" shape-rendering="crispEdges"/><rect fill="#000000" x="1146.8" y="343.1" width="24.4" height="24.65" shape-rendering="crispEdges"/><rect fill="#000000" x="1171.2" y="343.1" width="292.8" height="24.65" shape-rendering="crispEdges"/><rect fill="#000000" x="0" y="367.5" width="1146.8" height="24.65" shape-rendering="crispEdges"/><rect fill="#000000" x="1146.8" y="367.5" width="24.4" height="24.65" shape-rendering="crispEdges"/><rect fill="#000000" x="1171.2" y="367.5" width="292.8" height="24.65" shape-rendering="crispEdges"/><rect fill="#000000" x="0" y="391.9" width="1146.8" height="24.65" shape-rendering="crispEdges"/><rect fill="#000000" x="1146.8" y="391.9" width="24.4" height="24.65" shape-rendering="crispEdges"/><rect fill="#000000" x="1171.2" y="391.9" width="292.8" height="24.65" shape-rendering="crispEdges"/><rect fill="#000000" x="0" y="416.3" width="1146.8" height="24.65" shape-rendering="crispEdges"/><rect fill="#000000" x="1146.8" y="416.3" width="24.4" height="24.65" shape-rendering="crispEdges"/><rect fill="#000000" x="1171.2" y="416.3" width="292.8" height="24.65" shape-rendering="crispEdges"/><rect fill="#000000" x="0" y="440.7" width="1146.8" height="24.65" shape-rendering="crispEdges"/><rect fill="#000000" x="1146.8" y="440.7" width="24.4" height="24.65" shape-rendering="crispEdges"/><rect fill="#000000" x="1171.2" y="440.7" width="292.8" height="24.65" shape-rendering="crispEdges"/><rect fill="#000000" x="0" y="465.1" width="1146.8" height="24.65" shape-rendering="crispEdges"/><rect fill="#000000" x="1146.8" y="465.1" width="24.4" height="24.65" shape-rendering="crispEdges"/><rect fill="#000000" x="1171.2" y="465.1" width="292.8" height="24.65" shape-rendering="crispEdges"/><rect fill="#000000" x="0" y="489.5" width="1146.8" height="24.65" shape-rendering="crispEdges"/><rect fill="#000000" x="1146.8" y="489.5" width="24.4" height="24.65" shape-rendering="crispEdges"/><rect fill="#000000" x="1171.2" y="489.5" width="292.8" height="24.65" shape-rendering="crispEdges"/><rect fill="#000000" x="0" y="513.9" width="1146.8" height="24.65" shape-rendering="crispEdges"/><rect fill="#000000" x="1146.8" y="513.9" width="24.4" height="24.65" shape-rendering="crispEdges"/><rect fill="#000000" x="1171.2" y="513.9" width="292.8" height="24.65" shape-rendering="crispEdges"/><rect fill="#000000" x="0" y="538.3" width="1146.8" height="24.65" shape-rendering="crispEdges"/><rect fill="#000000" x="1146.8" y="538.3" width="24.4" height="24.65" shape-rendering="crispEdges"/><rect fill="#000000" x="1171.2" y="538.3" width="292.8" height="24.65" shape-rendering="crispEdges"/><rect fill="#000000" x="0" y="562.7" width="12.2" height="24.65" shape-rendering="crispEdges"/><rect fill="#000000" x="12.2" y="562.7" width="1439.6" height="24.65" shape-rendering="crispEdges"/><rect fill="#000000" x="1451.8" y="562.7" width="12.2" height="24.65" shape-rendering="crispEdges"/><rect fill="#191919" x="0" y="587.1" width="12.2" height="24.65" shape-rendering="crispEdges"/><rect fill="#000000" x="12.2" y="587.1" width="12.2" height="24.65" shape-rendering="crispEdges"/><rect fill="#00233f" x="24.4" y="587.1" width="73.2" height="24.65" shape-rendering="crispEdges"/><rect fill="#00233f" x="97.6" y="587.1" width="1317.6" height="24.65" shape-rendering="crispEdges"/><rect fill="#003054" x="1415.2" y="587.1" width="24.4" height="24.65" shape-rendering="crispEdges"/><rect fill="#000000" x="1439.6" y="587.1" width="12.2" height="24.65" shape-rendering="crispEdges"/><rect fill="#000000" x="1451.8" y="587.1" width="12.2" height="24.65" shape-rendering="crispEdges"/><rect fill="#191919" x="0" y="611.5" width="12.2" height="24.65" shape-rendering="crispEdges"/><rect fill="#000000" x="12.2" y="611.5" width="12.2" height="24.65" shape-rendering="crispEdges"/><rect fill="#000000" x="24.4" y="611.5" width="73.2" height="24.65" shape-rendering="crispEdges"/><rect fill="#000000" x="97.6" y="611.5" width="1317.6" height="24.65" shape-rendering="crispEdges"/><rect fill="#003054" x="1415.2" y="611.5" width="24.4" height="24.65" shape-rendering="crispEdges"/><rect fill="#000000" x="1439.6" y="611.5" width="12.2" height="24.65" shape-rendering="crispEdges"/><rect fill="#000000" x="1451.8" y="611.5" width="12.2" height="24.65" shape-rendering="crispEdges"/><rect fill="#191919" x="0" y="635.9" width="12.2" height="24.65" shape-rendering="crispEdges"/><rect fill="#000000" x="12.2" y="635.9" width="12.2" height="24.65" shape-rendering="crispEdges"/><rect fill="#000000" x="24.4" y="635.9" width="109.8" height="24.65" shape-rendering="crispEdges"/><rect fill="#000000" x="134.2" y="635.9" width="1281" height="24.65" shape-rendering="crispEdges"/><rect fill="#003054" x="1415.2" y="635.9" width="24.4" height="24.65" shape-rendering="crispEdges"/><rect fill="#000000" x="1439.6" y="635.9" width="12.2" height="24.65" shape-rendering="crispEdges"/><rect fill="#000000" x="1451.8" y="635.9" width="12.2" height="24.65" shape-rendering="crispEdges"/><rect fill="#191919" x="0" y="660.3" width="12.2" height="24.65" shape-rendering="crispEdges"/><rect fill="#000000" x="12.2" y="660.3" width="12.2" height="24.65" shape-rendering="crispEdges"/><rect fill="#000000" x="24.4" y="660.3" width="122" height="24.65" shape-rendering="crispEdges"/><rect fill="#000000" x="146.4" y="660.3" width="1268.8" height="24.65" shape-rendering="crispEdges"/><rect fill="#003054" x="1415.2" y="660.3" width="24.4" height="24.65" shape-rendering="crispEdges"/><rect fill="#000000" x="1439.6" y="660.3" width="12.2" height="24.65" shape-rendering="crispEdges"/><rect fill="#000000" x="1451.8" y="660.3" width="12.2" height="24.65" shape-rendering="crispEdges"/><rect fill="#191919" x="0" y="684.7" width="12.2" height="24.65" shape-rendering="crispEdges"/><rect fill="#000000" x="12.2" y="684.7" width="12.2" height="24.65" shape-rendering="crispEdges"/><rect fill="#000000" x="24.4" y="684.7" width="73.2" height="24.65" shape-rendering="crispEdges"/><rect fill="#000000" x="97.6" y="684.7" width="1317.6" height="24.65" shape-rendering="crispEdges"/><rect fill="#003054" x="1415.2" y="684.7" width="24.4" height="24.65" shape-rendering="crispEdges"/><rect fill="#000000" x="1439.6" y="684.7" width="12.2" height="24.65" shape-rendering="crispEdges"/><rect fill="#000000" x="1451.8" y="684.7" width="12.2" height="24.65" shape-rendering="crispEdges"/><rect fill="#191919" x="0" y="709.1" width="12.2" height="24.65" shape-rendering="crispEdges"/><rect fill="#000000" x="12.2" y="709.1" width="12.2" height="24.65" shape-rendering="crispEdges"/><rect fill="#000000" x="24.4" y="709.1" width="73.2" height="24.65" shape-rendering="crispEdges"/><rect fill="#000000" x="97.6" y="709.1" width="1317.6" height="24.65" shape-rendering="crispEdges"/><rect fill="#003054" x="1415.2" y="709.1" width="24.4" height="24.65" shape-rendering="crispEdges"/><rect fill="#000000" x="1439.6" y="709.1" width="12.2" height="24.65" shape-rendering="crispEdges"/><rect fill="#000000" x="1451.8" y="709.1" width="12.2" height="24.65" shape-rendering="crispEdges"/><rect fill="#191919" x="0" y="733.5" width="12.2" height="24.65" shape-rendering="crispEdges"/><rect fill="#000000" x="12.2" y="733.5" width="12.2" height="24.65" shape-rendering="crispEdges"/><rect fill="#000000" x="24.4" y="733.5" width="146.4" height="24.65" shape-rendering="crispEdges"/><rect fill="#000000" x="170.8" y="733.5" width="1244.4" height="24.65" shape-rendering="crispEdges"/><rect fill="#003054" x="1415.2" y="733.5" width="24.4" height="24.65" shape-rendering="crispEdges"/><rect fill="#000000" x="1439.6" y="733.5" width="12.2" height="24.65" shape-rendering="crispEdges"/><rect fill="#000000" x="1451.8" y="733.5" width="12.2" height="24.65" shape-rendering="crispEdges"/><rect fill="#191919" x="0" y="757.9" width="12.2" height="24.65" shape-rendering="crispEdges"/><rect fill="#000000" x="12.2" y="757.9" width="12.2" height="24.65" shape-rendering="crispEdges"/><rect fill="#000000" x="24.4" y="757.9" width="85.4" height="24.65" shape-rendering="crispEdges"/><rect fill="#000000" x="109.8" y="757.9" width="1305.4" height="24.65" shape-rendering="crispEdges"/><rect fill="#003054" x="1415.2" y="757.9" width="24.4" height="24.65" shape-rendering="crispEdges"/><rect fill="#000000" x="1439.6" y="757.9" width="12.2" height="24.65" shape-rendering="crispEdges"/><rect fill="#000000" x="1451.8" y="757.9" width="12.2" height="24.65" shape-rendering="crispEdges"/><rect fill="#000000" x="0" y="782.3" width="1415.2" height="24.65" shape-rendering="crispEdges"/><rect fill="#000000" x="1415.2" y="782.3" width="24.4" height="24.65" shape-rendering="crispEdges"/><rect fill="#000000" x="1439.6" y="782.3" width="24.4" height="24.65" shape-rendering="crispEdges"/><rect fill="#0b0b0b" x="0" y="806.7" width="24.4" height="24.65" shape-rendering="crispEdges"/><rect fill="#0b0b0b" x="24.4" y="806.7" width="12.2" height="24.65" shape-rendering="crispEdges"/><rect fill="#e0e0e0" x="36.6" y="806.7" width="12.2" height="24.65" shape-rendering="crispEdges"/><rect fill="#0b0b0b" x="48.8" y="806.7" width="1268.8" height="24.65" shape-rendering="crispEdges"/><rect fill="#0b0b0b" x="1317.6" y="806.7" width="24.4" height="24.65" shape-rendering="crispEdges"/><rect fill="#000000" x="1342" y="806.7" width="73.2" height="24.65" shape-rendering="crispEdges"/><rect fill="#000000" x="1415.2" y="806.7" width="24.4" height="24.65" shape-rendering="crispEdges"/><rect fill="#000000" x="1439.6" y="806.7" width="24.4" height="24.65" shape-rendering="crispEdges"/><rect fill="#0b0b0b" x="0" y="831.1" width="24.4" height="24.65" shape-rendering="crispEdges"/><rect fill="#0b0b0b" x="24.4" y="831.1" width="1293.2" height="24.65" shape-rendering="crispEdges"/><rect fill="#0b0b0b" x="1317.6" y="831.1" width="24.4" height="24.65" shape-rendering="crispEdges"/><rect fill="#000000" x="1342" y="831.1" width="24.4" height="24.65" shape-rendering="crispEdges"/><rect fill="#000000" x="1366.4" y="831.1" width="73.2" height="24.65" shape-rendering="crispEdges"/><rect fill="#000000" x="1439.6" y="831.1" width="24.4" height="24.65" shape-rendering="crispEdges"/>
    <g class="terminal-2921969502-matrix">
    <text class="terminal-2921969502-r1" x="1464" y="20" textLength="12.2" clip-path="url(#terminal-2921969502-line-0)">
</text><text class="terminal-2921969502-r1" x="1464" y="44.4" textLength="12.2" clip-path="url(#terminal-2921969502-line-1)">
</text><text class="terminal-2921969502-r2" x="0" y="68.8" textLength="1464" clip-path="url(#terminal-2921969502-line-2)">────────────────────────────────────────────────────────────────────────────────────────────────────────────────────────</text><text class="terminal-2921969502-r1" x="1464" y="68.8" textLength="12.2" clip-path="url(#terminal-2921969502-line-2)">
</text><text class="terminal-2921969502-r4" x="158.6" y="93.2" textLength="109.8" clip-path="url(#terminal-2921969502-line-3)">&#160;&#160;15:52&#160;&#160;</text><text class="terminal-2921969502-r5" x="268.4" y="93.2" textLength="512.4" clip-path="url(#terminal-2921969502-line-3)">Room&#160;created.&#160;Share&#160;your&#160;Chat&#160;ID:&#160;&#160;C4ZLVE5</text><text class="terminal-2921969502-r2" x="1171.2" y="93.2" textLength="12.2" clip-path="url(#terminal-2921969502-line-3)">│</text><text class="terminal-2921969502-r1" x="1464" y="93.2" textLength="12.2" clip-path="url(#terminal-2921969502-line-3)">
</text><text class="terminal-2921969502-r4" x="244" y="117.6" textLength="109.8" clip-path="url(#terminal-2921969502-line-4)">&#160;&#160;15:52&#160;&#160;</text><text class="terminal-2921969502-r6" x="353.8" y="117.6" textLength="341.6" clip-path="url(#terminal-2921969502-line-4)">Waiting&#160;for&#160;peers&#160;to&#160;join...</text><text class="terminal-2921969502-r2" x="1171.2" y="117.6" textLength="12.2" clip-path="url(#terminal-2921969502-line-4)">│</text><text class="terminal-2921969502-r7" x="1183.4" y="117.6" textLength="85.4" clip-path="url(#terminal-2921969502-line-4)">&#160;&#160;Peers</text><text class="terminal-2921969502-r1" x="1464" y="117.6" textLength="12.2" clip-path="url(#terminal-2921969502-line-4)">
</text><text class="terminal-2921969502-r4" x="0" y="142" textLength="109.8" clip-path="url(#terminal-2921969502-line-5)">&#160;&#160;15:52&#160;&#160;</text><text class="terminal-2921969502-r8" x="109.8" y="142" textLength="85.4" clip-path="url(#terminal-2921969502-line-5)">ALICE&#160;&#160;</text><text class="terminal-2921969502-r3" x="195.2" y="142" textLength="427" clip-path="url(#terminal-2921969502-line-5)">Hello&#160;world!&#160;This&#160;is&#160;a&#160;secure&#160;chat.</text><text class="terminal-2921969502-r2" x="1171.2" y="142" textLength="12.2" clip-path="url(#terminal-2921969502-line-5)">│</text><text class="terminal-2921969502-r7" x="1183.4" y="142" textLength="219.6" clip-path="url(#terminal-2921969502-line-5)">&#160;&#160;────────────────</text><text class="terminal-2921969502-r1" x="1464" y="142" textLength="12.2" clip-path="url(#terminal-2921969502-line-5)">
</text><text class="terminal-2921969502-r2" x="1171.2" y="166.4" textLength="12.2" clip-path="url(#terminal-2921969502-line-6)">│</text><text class="terminal-2921969502-r1" x="1464" y="166.4" textLength="12.2" clip-path="url(#terminal-2921969502-line-6)">
</text><text class="terminal-2921969502-r1" x="1464" y="190.8" textLength="12.2" clip-path="url(#terminal-2921969502-line-7)">
</text><text class="terminal-2921969502-r1" x="1464" y="215.2" textLength="12.2" clip-path="url(#terminal-2921969502-line-8)">
</text><text class="terminal-2921969502-r1" x="1464" y="239.6" textLength="12.2" clip-path="url(#terminal-2921969502-line-9)">
</text><text class="terminal-2921969502-r1" x="1464" y="264" textLength="12.2" clip-path="url(#terminal-2921969502-line-10)">
</text><text class="terminal-2921969502-r1" x="1464" y="288.4" textLength="12.2" clip-path="url(#terminal-2921969502-line-11)">
</text><text class="terminal-2921969502-r1" x="1464" y="312.8" textLength="12.2" clip-path="url(#terminal-2921969502-line-12)">
</text><text class="terminal-2921969502-r1" x="1464" y="337.2" textLength="12.2" clip-path="url(#terminal-2921969502-line-13)">
</text><text class="terminal-2921969502-r1" x="1464" y="361.6" textLength="12.2" clip-path="url(#terminal-2921969502-line-14)">
</text><text class="terminal-2921969502-r1" x="1464" y="386" textLength="12.2" clip-path="url(#terminal-2921969502-line-15)">
</text><text class="terminal-2921969502-r1" x="1464" y="410.4" textLength="12.2" clip-path="url(#terminal-2921969502-line-16)">
</text><text class="terminal-2921969502-r1" x="1464" y="434.8" textLength="12.2" clip-path="url(#terminal-2921969502-line-17)">
</text><text class="terminal-2921969502-r1" x="1464" y="459.2" textLength="12.2" clip-path="url(#terminal-2921969502-line-18)">
</text><text class="terminal-2921969502-r1" x="1464" y="483.6" textLength="12.2" clip-path="url(#terminal-2921969502-line-19)">
</text><text class="terminal-2921969502-r1" x="1464" y="508" textLength="12.2" clip-path="url(#terminal-2921969502-line-20)">
</text><text class="terminal-2921969502-r1" x="1464" y="532.4" textLength="12.2" clip-path="url(#terminal-2921969502-line-21)">
</text><text class="terminal-2921969502-r1" x="1464" y="556.8" textLength="12.2" clip-path="url(#terminal-2921969502-line-22)">
</text><text class="terminal-2921969502-r2" x="0" y="581.2" textLength="12.2" clip-path="url(#terminal-2921969502-line-23)">┌</text><text class="terminal-2921969502-r2" x="12.2" y="581.2" textLength="1439.6" clip-path="url(#terminal-2921969502-line-23)">──────────────────────────────────────────────────────────────────────────────────────────────────────────────────────</text><text class="terminal-2921969502-r2" x="1451.8" y="581.2" textLength="12.2" clip-path="url(#terminal-2921969502-line-23)">┐</text><text class="terminal-2921969502-r1" x="1464" y="581.2" textLength="12.2" clip-path="url(#terminal-2921969502-line-23)">
</text><text class="terminal-2921969502-r9" x="0" y="605.6" textLength="12.2" clip-path="url(#terminal-2921969502-line-24)">▊</text><text class="terminal-2921969502-r3" x="24.4" y="605.6" textLength="73.2" clip-path="url(#terminal-2921969502-line-24)">/lobby</text><text class="terminal-2921969502-r10" x="1451.8" y="605.6" textLength="12.2" clip-path="url(#terminal-2921969502-line-24)">▎</text><text class="terminal-2921969502-r1" x="1464" y="605.6" textLength="12.2" clip-path="url(#terminal-2921969502-line-24)">
</text><text class="terminal-2921969502-r9" x="0" y="630" textLength="12.2" clip-path="url(#terminal-2921969502-line-25)">▊</text><text class="terminal-2921969502-r7" x="24.4" y="630" textLength="73.2" clip-path="url(#terminal-2921969502-line-25)">/login</text><text class="terminal-2921969502-r10" x="1451.8" y="630" textLength="12.2" clip-path="url(#terminal-2921969502-line-25)">▎</text><text class="terminal-2921969502-r1" x="1464" y="630" textLength="12.2" clip-path="url(#terminal-2921969502-line-25)">
</text><text class="terminal-2921969502-r9" x="0" y="654.4" textLength="12.2" clip-path="url(#terminal-2921969502-line-26)">▊</text><text class="terminal-2921969502-r7" x="24.4" y="654.4" textLength="109.8" clip-path="url(#terminal-2921969502-line-26)">/save&#160;txt</text><text class="terminal-2921969502-r10" x="1451.8" y="654.4" textLength="12.2" clip-path="url(#terminal-2921969502-line-26)">▎</text><text class="terminal-2921969502-r1" x="1464" y="654.4" textLength="12.2" clip-path="url(#terminal-2921969502-line-26)">
</text><text class="terminal-2921969502-r9" x="0" y="678.8" textLength="12.2" clip-path="url(#terminal-2921969502-line-27)">▊</text><text class="terminal-2921969502-r7" x="24.4" y="678.8" textLength="122" clip-path="url(#terminal-2921969502-line-27)">/save&#160;html</text><text class="terminal-2921969502-r10" x="1451.8" y="678.8" textLength="12.2" clip-path="url(#terminal-2921969502-line-27)">▎</text><text class="terminal-2921969502-r1" x="1464" y="678.8" textLength="12.2" clip-path="url(#terminal-2921969502-line-27)">
</text><text class="terminal-2921969502-r9" x="0" y="703.2" textLength="12.2" clip-path="url(#terminal-2921969502-line-28)">▊</text><text class="terminal-2921969502-r7" x="24.4" y="703.2" textLength="73.2" clip-path="url(#terminal-2921969502-line-28)">/clear</text><text class="terminal-2921969502-r10" x="1451.8" y="703.2" textLength="12.2" clip-path="url(#terminal-2921969502-line-28)">▎</text><text class="terminal-2921969502-r1" x="1464" y="703.2" textLength="12.2" clip-path="url(#terminal-2921969502-line-28)">
</text><text class="terminal-2921969502-r9" x="0" y="727.6" textLength="12.2" clip-path="url(#terminal-2921969502-line-29)">▊</text><text class="terminal-2921969502-r7" x="24.4" y="727.6" textLength="73.2" clip-path="url(#terminal-2921969502-line-29)">/peers</text><text class="terminal-2921969502-r10" x="1451.8" y="727.6" textLength="12.2" clip-path="url(#terminal-2921969502-line-29)">▎</text><text class="terminal-2921969502-r1" x="1464" y="727.6" textLength="12.2" clip-path="url(#terminal-2921969502-line-29)">
</text><text class="terminal-2921969502-r9" x="0" y="752" textLength="12.2" clip-path="url(#terminal-2921969502-line-30)">▊</text><text class="terminal-2921969502-r7" x="24.4" y="752" textLength="146.4" clip-path="url(#terminal-2921969502-line-30)">/fingerprint</text><text class="terminal-2921969502-r10" x="1451.8" y="752" textLength="12.2" clip-path="url(#terminal-2921969502-line-30)">▎</text><text class="terminal-2921969502-r1" x="1464" y="752" textLength="12.2" clip-path="url(#terminal-2921969502-line-30)">
</text><text class="terminal-2921969502-r9" x="0" y="776.4" textLength="12.2" clip-path="url(#terminal-2921969502-line-31)">▊</text><text class="terminal-2921969502-r7" x="24.4" y="776.4" textLength="85.4" clip-path="url(#terminal-2921969502-line-31)">/verify</text><text class="terminal-2921969502-r10" x="1451.8" y="776.4" textLength="12.2" clip-path="url(#terminal-2921969502-line-31)">▎</text><text class="terminal-2921969502-r1" x="1464" y="776.4" textLength="12.2" clip-path="url(#terminal-2921969502-line-31)">
</text><text class="terminal-2921969502-r2" x="0" y="800.8" textLength="1415.2" clip-path="url(#terminal-2921969502-line-32)">────────────────────────────────────────────────────────────────────────────────────────────────────────────────────</text><text class="terminal-2921969502-r2" x="1415.2" y="800.8" textLength="24.4" clip-path="url(#terminal-2921969502-line-32)">──</text><text class="terminal-2921969502-r2" x="1439.6" y="800.8" textLength="24.4" clip-path="url(#terminal-2921969502-line-32)">──</text><text class="terminal-2921969502-r1" x="1464" y="800.8" textLength="12.2" clip-path="url(#terminal-2921969502-line-32)">
</text><text class="terminal-2921969502-r7" x="24.4" y="825.2" textLength="12.2" clip-path="url(#terminal-2921969502-line-33)">/</text><text class="terminal-2921969502-r1" x="1464" y="825.2" textLength="12.2" clip-path="url(#terminal-2921969502-line-33)">
</text><text class="terminal-2921969502-r12" x="1366.4" y="849.6" textLength="73.2" clip-path="url(#terminal-2921969502-line-34)">&#160;&#160;E2EE</text>
    </g>
    </g>
</svg>
